<svg width="100" height="100" viewBox="0 0 100 100" fill="none" xmlns="http://www.w3.org/2000/svg">
<path d="M2.30008 70.0801L35.5001 13.2422C39.7173 15.7249 60.9828 27.4939 64.4173 29.7318L31.2173 86.5732C27.5863 91.3698 -2.29992 77.3594 2.30008 70.0767V70.0801Z" fill="#FBBC04"/>
<path d="M97.6892 70.0788L64.4892 13.2443C59.8478 5.5202 49.8512 2.71331 41.6409 7.27538C33.4305 11.8374 30.9305 21.665 35.5719 29.734L68.7719 86.5754C73.4133 94.2961 83.4098 97.103 91.6202 92.5409C99.4719 87.9788 102.331 77.803 97.6892 70.0857V70.0788Z" fill="#4285F4"/>
<path d="M16.6655 94.7378C25.8696 94.7378 33.331 87.4617 33.331 78.4861C33.331 69.5105 25.8696 62.2344 16.6655 62.2344C7.4614 62.2344 0 69.5105 0 78.4861C0 87.4617 7.4614 94.7378 16.6655 94.7378Z" fill="#34A853"/>
</svg>
