<svg width="104" height="100" viewBox="0 0 104 100" fill="none" xmlns="http://www.w3.org/2000/svg">
<path fill-rule="evenodd" clip-rule="evenodd" d="M28.6678 16.0398C26.0181 16.2954 23.5961 16.9915 21.2448 18.173C11.8887 22.8748 4.39802 34.9724 1.80256 49.5731C1.33175 52.2216 1.07004 54.49 0.908254 57.324C0.795329 59.3026 0.856111 63.2724 1.02217 64.7584C1.71204 70.9319 3.64424 75.6266 6.87191 78.9715C8.75296 80.921 10.8489 82.247 13.3679 83.0815C15.33 83.7315 17.1001 84.0004 19.4166 84.0001C23.8593 83.9997 27.111 82.87 30.5501 80.1322C32.1561 78.8536 34.6095 76.2311 36.4161 73.8619C39.6194 69.6609 41.6952 66.2993 48.3512 54.5339L52.0147 48.058L52.8108 49.3701C53.8436 51.0727 57.5268 57.2216 59.7602 60.9716C65.3425 70.345 68.5826 74.9178 72.0686 78.3431C75.5379 81.7519 78.7637 83.3849 83.0172 83.8859C84.1554 84.0199 86.498 84.0374 87.5791 83.9198C90.5214 83.5999 93.1567 82.5941 95.3312 80.9611C96.0646 80.4104 97.4308 79.0848 98.0354 78.3372C100.517 75.2684 102.187 70.868 102.824 65.7146C103.307 61.8078 103.25 56.8874 102.668 52.1741C100.985 38.5421 95.0364 26.6497 86.8024 20.4559C81.8627 16.7401 76.2265 15.2752 70.9598 16.3383C65.4297 17.4545 60.0538 21.5816 54.3248 29.1092C53.9086 29.6562 53.5261 30.1499 53.4749 30.2063C53.3995 30.2896 53.2223 30.1115 52.5332 29.2587C45.0313 19.9771 38.2647 15.9332 30.3503 16.0017C29.5721 16.0084 28.815 16.0255 28.6678 16.0398ZM75.9177 24.9761C78.592 25.5723 81.0213 27.0368 83.3796 29.4744C84.9746 31.1231 86.2409 32.858 87.4681 35.0763C90.7233 40.9597 92.6147 47.9105 93.2864 56.4581C93.4353 58.3527 93.4129 63.0867 93.2493 64.2994C92.5823 69.2437 90.7444 71.9775 87.5551 72.7693C86.6525 72.9934 84.9545 73.0087 84.0603 72.8009C81.6913 72.2501 80.0237 70.8542 77.1944 67.0534C75.1401 64.2937 70.7557 57.3905 65.825 49.1523C62.077 42.8902 60.8154 40.8568 58.9265 38.0344L58.3976 37.2442L59.2733 35.9307C63.735 29.2387 67.5751 25.8066 71.5655 24.9449C72.1895 24.8101 72.4911 24.7932 73.8152 24.8188C74.8669 24.8391 75.5234 24.8882 75.9177 24.9761ZM31.8025 27.2435C34.7991 27.6598 37.3523 29.1158 40.3695 32.1292C42.1564 33.9139 43.8717 35.9861 45.9173 38.8318L46.7794 40.0311L46.5277 40.4224C46.3892 40.6377 45.4051 42.1564 44.3407 43.7973C41.7434 47.8019 39.442 51.3862 36.9239 55.3488C34.2109 59.6183 33.5005 60.7043 31.9697 62.9224C27.6009 69.2528 25.0124 71.8313 22.221 72.6335C20.0957 73.2443 17.9096 73.0192 16.1933 72.0127C15.556 71.639 14.5085 70.6122 14.0291 69.8911C12.9743 68.305 12.2888 66.1551 11.9901 63.4961C11.8663 62.3944 11.8669 58.7451 11.9911 57.1848C12.8473 46.4278 16.5559 36.633 21.8203 31.2238C24.2641 28.713 26.5305 27.4694 29.2795 27.1309C29.6598 27.084 31.1252 27.1495 31.8025 27.2435Z" fill="url(#paint0_linear_609_16576)"/>
<path fill-rule="evenodd" clip-rule="evenodd" d="M28.6678 16.0398C26.0181 16.2954 23.5961 16.9915 21.2448 18.173C11.8887 22.8748 4.39802 34.9724 1.80256 49.5731C1.33175 52.2216 1.07004 54.49 0.908254 57.324C0.795329 59.3026 0.856111 63.2724 1.02217 64.7584C1.71204 70.9319 3.64424 75.6266 6.87191 78.9715C8.75296 80.921 10.8489 82.247 13.3679 83.0815C15.33 83.7315 17.1001 84.0004 19.4166 84.0001C23.8593 83.9997 27.111 82.87 30.5501 80.1322C32.1561 78.8536 34.6095 76.2311 36.4161 73.8619C39.6194 69.6609 41.6952 66.2993 48.3512 54.5339L52.0147 48.058L52.8108 49.3701C53.8436 51.0727 57.5268 57.2216 59.7602 60.9716C65.3425 70.345 68.5826 74.9178 72.0686 78.3431C75.5379 81.7519 78.7637 83.3849 83.0172 83.8859C84.1554 84.0199 86.498 84.0374 87.5791 83.9198C90.5214 83.5999 93.1567 82.5941 95.3312 80.9611C96.0646 80.4104 97.4308 79.0848 98.0354 78.3372C100.517 75.2684 102.187 70.868 102.824 65.7146C103.307 61.8078 103.25 56.8874 102.668 52.1741C100.985 38.5421 95.0364 26.6497 86.8024 20.4559C81.8627 16.7401 76.2265 15.2752 70.9598 16.3383C65.4297 17.4545 60.0538 21.5816 54.3248 29.1092C53.9086 29.6562 53.5261 30.1499 53.4749 30.2063C53.3995 30.2896 53.2223 30.1115 52.5332 29.2587C45.0313 19.9771 38.2647 15.9332 30.3503 16.0017C29.5721 16.0084 28.815 16.0255 28.6678 16.0398ZM75.9177 24.9761C78.592 25.5723 81.0213 27.0368 83.3796 29.4744C84.9746 31.1231 86.2409 32.858 87.4681 35.0763C90.7233 40.9597 92.6147 47.9105 93.2864 56.4581C93.4353 58.3527 93.4129 63.0867 93.2493 64.2994C92.5823 69.2437 90.7444 71.9775 87.5551 72.7693C86.6525 72.9934 84.9545 73.0087 84.0603 72.8009C81.6913 72.2501 80.0237 70.8542 77.1944 67.0534C75.1401 64.2937 70.7557 57.3905 65.825 49.1523C62.077 42.8902 60.8154 40.8568 58.9265 38.0344L58.3976 37.2442L59.2733 35.9307C63.735 29.2387 67.5751 25.8066 71.5655 24.9449C72.1895 24.8101 72.4911 24.7932 73.8152 24.8188C74.8669 24.8391 75.5234 24.8882 75.9177 24.9761ZM31.8025 27.2435C34.7991 27.6598 37.3523 29.1158 40.3695 32.1292C42.1564 33.9139 43.8717 35.9861 45.9173 38.8318L46.7794 40.0311L46.5277 40.4224C46.3892 40.6377 45.4051 42.1564 44.3407 43.7973C41.7434 47.8019 39.442 51.3862 36.9239 55.3488C34.2109 59.6183 33.5005 60.7043 31.9697 62.9224C27.6009 69.2528 25.0124 71.8313 22.221 72.6335C20.0957 73.2443 17.9096 73.0192 16.1933 72.0127C15.556 71.639 14.5085 70.6122 14.0291 69.8911C12.9743 68.305 12.2888 66.1551 11.9901 63.4961C11.8663 62.3944 11.8669 58.7451 11.9911 57.1848C12.8473 46.4278 16.5559 36.633 21.8203 31.2238C24.2641 28.713 26.5305 27.4694 29.2795 27.1309C29.6598 27.084 31.1252 27.1495 31.8025 27.2435Z" fill="url(#paint1_radial_609_16576)"/>
<path d="M62.9684 44.4564C50.0113 23.3835 41.3841 16 30.254 16L30.1138 27.0719C37.4011 27.0719 43.0519 32.8182 55.3404 53.513L56.0895 54.773L62.9684 44.4564Z" fill="url(#paint2_linear_609_16576)"/>
<defs>
<linearGradient id="paint0_linear_609_16576" x1="12.5694" y1="23.0113" x2="103.136" y2="80.2506" gradientUnits="userSpaceOnUse">
<stop stop-color="#3182F3"/>
<stop offset="0.13599" stop-color="#0164E0"/>
<stop offset="0.559391" stop-color="#0869E1"/>
<stop offset="0.96875" stop-color="#307FEF"/>
</linearGradient>
<radialGradient id="paint1_radial_609_16576" cx="0" cy="0" r="1" gradientUnits="userSpaceOnUse" gradientTransform="translate(51.9933 41.0637) rotate(90) scale(36.5789 55.0293)">
<stop stop-color="#3183F3"/>
<stop offset="1" stop-color="#3183F3"/>
</radialGradient>
<linearGradient id="paint2_linear_609_16576" x1="32.3153" y1="20.7417" x2="59.8172" y2="49.1581" gradientUnits="userSpaceOnUse">
<stop stop-color="#3183F3"/>
<stop offset="0.660785" stop-color="#2669D9"/>
<stop offset="1" stop-color="#3183F3"/>
</linearGradient>
</defs>
</svg>
