<svg width="570" height="329" viewBox="0 0 570 329" fill="none" xmlns="http://www.w3.org/2000/svg">
<mask id="mask0_413_16022" style="mask-type:luminance" maskUnits="userSpaceOnUse" x="0" y="0" width="570" height="329">
<path d="M569.35 0H0V328.698H569.35V0Z" fill="white"/>
</mask>
<g mask="url(#mask0_413_16022)">
<path d="M284.674 328.698C441.897 328.698 569.35 326.34 569.35 323.43C569.35 320.521 441.897 318.162 284.674 318.162C127.453 318.162 0 320.521 0 323.43C0 326.34 127.453 328.698 284.674 328.698Z" fill="#F5F8FF"/>
<path d="M358.759 0H97.5953C93.7161 0 90.5708 2.27819 90.5708 5.08805V129.608C90.5708 132.418 93.7161 134.696 97.5953 134.696H358.759C362.639 134.696 365.784 132.418 365.784 129.608V5.08805C365.784 2.27819 362.639 0 358.759 0Z" fill="url(#paint0_linear_413_16022)"/>
<path d="M352.901 87.729H304.239C302.434 87.729 300.971 88.7888 300.971 90.0963V128.347C300.971 129.655 302.434 130.715 304.239 130.715H352.901C354.706 130.715 356.169 129.655 356.169 128.347V90.0963C356.169 88.7888 354.706 87.729 352.901 87.729Z" fill="#E02E2E"/>
<path d="M172.325 87.3264H101.942C100.413 87.3264 99.1741 88.2239 99.1741 89.331V128.71C99.1741 129.817 100.413 130.715 101.942 130.715H172.325C173.853 130.715 175.092 129.817 175.092 128.71V89.331C175.092 88.2239 173.853 87.3264 172.325 87.3264Z" fill="white"/>
<path d="M292.26 87.3264H184.15C182.269 87.3264 180.745 88.4308 180.745 89.7929V128.248C180.745 129.61 182.269 130.715 184.15 130.715H292.26C294.14 130.715 295.665 129.61 295.665 128.248V89.7929C295.665 88.4308 294.14 87.3264 292.26 87.3264Z" fill="white"/>
<path d="M351.8 17.5923H253.907C251.494 17.5923 249.538 19.009 249.538 20.7567V80.2915C249.538 82.0388 251.494 83.4556 253.907 83.4556H351.8C354.213 83.4556 356.169 82.0388 356.169 80.2915V20.7567C356.169 19.009 354.213 17.5923 351.8 17.5923Z" fill="#0072C6"/>
<path d="M230.252 151.593C236.236 146.805 234.54 145.523 237.345 142.696C240.1 139.939 239.493 131.822 242.123 133.369C244.753 134.915 244.768 137.822 244.768 137.822C247.656 135.57 251.104 131.103 256.147 131.395C261.191 131.687 261.257 132.87 263.474 134.985C269.352 140.671 257.814 145.698 255.42 147.958C253.894 149.369 244.925 152.928 243.759 153.843L238.761 157.104L230.252 151.593Z" fill="#FFCCB3"/>
<path d="M249.538 139.006L258.073 132.105" stroke="#EF6A77" stroke-width="1.07832" stroke-linecap="round"/>
<path d="M252.998 140.961L261.887 134.696" stroke="#EF6A77" stroke-width="1.07832" stroke-linecap="round"/>
<path d="M257.144 143.176L262.307 139.344" stroke="#EF6A77" stroke-width="1.07832" stroke-linecap="round"/>
<path d="M140.631 190.334L90.5708 320.498H100.768L158.63 190.334H140.631Z" fill="#D1E8F7"/>
<path d="M140.631 190.334L136.956 199.89L156.136 195.945L158.63 190.334H140.631Z" fill="#0072C6"/>
<path d="M496.339 293.974L469.22 320.087C468.583 320.702 467.631 321.109 466.582 321.216C465.528 321.324 464.458 321.125 463.613 320.662L461.093 319.29L493.027 288.539L495.547 289.91C496.398 290.373 496.954 291.061 497.104 291.823C497.254 292.586 496.981 293.359 496.339 293.974Z" fill="#5661AE"/>
<path d="M470.761 278.683L480.535 284.439L470.605 295.541L459.579 289.447L470.761 278.683Z" fill="#BC775C"/>
<path d="M475.099 281.488L462.923 291.109L459.959 289.416L471.365 279.266L475.099 281.488Z" fill="#93523E" stroke="#93523E"/>
<path d="M479.224 283.725C479.224 283.725 476.48 290.719 467.433 294.302L459.263 317.437C459.526 318.765 461.575 319.618 462.934 319.934C463.233 320.002 463.554 320.001 463.854 319.931C464.153 319.862 464.41 319.726 464.597 319.544L493.589 291.63C494.07 291.164 494.284 290.579 494.183 290.001C494.076 289.424 493.664 288.898 493.027 288.539C490.497 287.1 486.607 284.932 484.927 284.188C482.322 283.037 480.471 282.771 479.224 283.725Z" fill="#0072C6"/>
<path d="M465.544 299.099L470.194 298.377C470.365 298.35 470.541 298.355 470.707 298.389C470.873 298.424 471.023 298.487 471.151 298.575C471.274 298.662 471.371 298.77 471.424 298.89C471.478 299.009 471.488 299.137 471.456 299.261C471.419 299.412 471.322 299.553 471.173 299.663C471.023 299.773 470.836 299.849 470.627 299.879L464.918 300.714L465.544 299.099Z" fill="white"/>
<path d="M464.448 302.765L469.07 302.034C469.241 302.008 469.418 302.012 469.584 302.047C469.749 302.081 469.905 302.145 470.028 302.232C470.156 302.32 470.247 302.428 470.301 302.547C470.354 302.667 470.365 302.795 470.338 302.918C470.301 303.07 470.199 303.21 470.049 303.321C469.905 303.431 469.712 303.507 469.503 303.537L463.875 304.383L464.448 302.765Z" fill="white"/>
<path d="M463.035 306.756L467.609 306.016C467.781 305.99 467.957 305.994 468.123 306.028C468.289 306.063 468.444 306.127 468.567 306.214C468.69 306.301 468.786 306.409 468.84 306.529C468.893 306.649 468.904 306.776 468.872 306.9C468.835 307.052 468.738 307.192 468.588 307.302C468.439 307.413 468.251 307.488 468.043 307.518L462.479 308.331L463.035 306.756Z" fill="white"/>
<path d="M377.822 248.251L455.219 293.418L472.874 278.514L405.203 232.528L377.822 248.251Z" fill="#1F2D49"/>
<path d="M419.335 242.131V272.478L455.219 293.418L460.371 270.017L419.335 242.131Z" fill="#0D1B33"/>
<path d="M384.69 165.216L371.968 238.699H407.538L438.436 165.584L384.69 165.216Z" fill="#1F2D49"/>
<path d="M415.232 220.495L421.206 184.04H435.895L415.232 220.495Z" fill="#0D1B33"/>
<path d="M447.162 321.758H402.05C400.987 321.758 399.967 321.452 399.216 320.908C398.465 320.363 398.042 319.625 398.042 318.855V316.574H451.169V318.855C451.169 319.625 450.746 320.363 449.997 320.908C449.243 321.452 448.226 321.758 447.162 321.758Z" fill="#5661AE"/>
<path d="M448.654 297.758L448.184 306.878L429.962 307.802L430.06 297.758H448.654Z" fill="#BC775C"/>
<path d="M448.173 301.958L430.235 300.692L430.321 297.959L448.376 298.459L448.173 301.958Z" fill="#93523E" stroke="#93523E"/>
<path d="M448.184 305.69C448.184 305.69 438.816 308.304 429.425 305.222L398.988 314.4C397.678 315.349 397.969 317.047 398.439 318.025C398.543 318.24 398.738 318.425 398.994 318.556C399.251 318.687 399.557 318.756 399.871 318.755H448.093C448.901 318.756 449.671 318.527 450.249 318.119C450.821 317.711 451.153 317.156 451.169 316.573C451.233 314.241 451.287 310.688 451.099 309.267C450.805 307.069 449.981 305.835 448.184 305.69Z" fill="#0072C6"/>
<path d="M422.995 307.011L426.586 309.268C426.717 309.351 426.818 309.456 426.881 309.573C426.943 309.69 426.965 309.817 426.944 309.942C426.922 310.067 426.859 310.186 426.759 310.289C426.66 310.392 426.526 310.475 426.372 310.532C426.182 310.602 425.967 310.629 425.757 310.609C425.545 310.589 425.347 310.524 425.188 310.422L420.837 307.619L422.995 307.011Z" fill="white"/>
<path d="M418.29 308.58L421.877 310.818C422.008 310.901 422.109 311.005 422.172 311.122C422.234 311.24 422.255 311.366 422.234 311.491C422.213 311.616 422.15 311.735 422.05 311.838C421.95 311.942 421.817 312.025 421.662 312.082C421.472 312.152 421.258 312.179 421.047 312.159C420.836 312.139 420.638 312.074 420.478 311.971L416.162 309.222L418.29 308.58Z" fill="white"/>
<path d="M413.04 310.163L416.605 312.365C416.736 312.448 416.837 312.552 416.9 312.669C416.962 312.787 416.983 312.914 416.962 313.039C416.941 313.163 416.878 313.282 416.778 313.386C416.678 313.489 416.545 313.572 416.39 313.629C416.2 313.699 415.986 313.726 415.775 313.706C415.564 313.686 415.366 313.621 415.207 313.518L410.967 310.788L413.04 310.163Z" fill="white"/>
<path d="M460.018 165.584C459.723 169.311 459.723 173.046 460.018 176.773C461.2 188.818 457.418 223.994 457.45 228.622C457.477 233.251 453.271 298.444 453.271 298.444H427.696C427.696 298.444 421.159 242.416 421.008 236.004C420.857 229.592 419.335 165.848 419.335 165.848L460.018 165.584Z" fill="#1F2D49"/>
<path d="M383.92 169.665L460.018 176.773V165.584L384.314 167.387L383.92 169.665Z" fill="#0D1B33"/>
<path d="M389.753 251.581C399.576 251.581 407.538 245.814 407.538 238.699C407.538 231.584 399.576 225.816 389.753 225.816C379.931 225.816 371.968 231.584 371.968 238.699C371.968 245.814 379.931 251.581 389.753 251.581Z" fill="#1F2D49"/>
<path d="M522.292 184.04H55.3669V190.334H522.292V184.04Z" fill="url(#paint1_linear_413_16022)"/>
<path fill-rule="evenodd" clip-rule="evenodd" d="M279.424 313.873C272.525 312.107 265.414 310.286 258.859 310.624C258.71 310.631 258.567 310.662 258.437 310.713C258.307 310.764 258.194 310.836 258.106 310.922C258.018 311.008 257.956 311.107 257.926 311.212C257.896 311.317 257.898 311.426 257.931 311.53L260.677 319.931C260.733 320.104 260.874 320.256 261.074 320.36C261.274 320.463 261.518 320.511 261.763 320.494L306.334 317.376C309.62 317.147 311.206 315.737 311.441 313.794C311.448 313.728 311.427 313.661 311.383 313.602C311.339 313.543 311.272 313.496 311.19 313.464C311.109 313.432 311.017 313.418 310.925 313.423C310.833 313.428 310.745 313.453 310.671 313.494C305.753 316.165 299.587 317.336 293.492 316.757C289.091 316.347 284.311 315.123 279.424 313.873Z" fill="#5661AE"/>
<path fill-rule="evenodd" clip-rule="evenodd" d="M255.313 289.634C255.313 289.634 259.911 302.835 260.04 304.252C260.051 305.039 259.982 305.826 259.834 306.606C259.628 308.008 259.4 309.57 259.744 310.594C266.051 310.452 272.835 312.188 279.425 313.874C284.311 315.124 289.09 316.347 293.491 316.757C299.292 317.308 305.169 316.276 309.976 313.859C309.775 311.449 306.619 309.417 300.797 309.458C290.36 309.531 284.585 309.395 278.827 304.305C274.736 300.688 272.762 285.43 272.762 285.43L255.313 289.634Z" fill="#FFCCB3"/>
<path fill-rule="evenodd" clip-rule="evenodd" d="M277.496 302.197C275.573 302.523 267.923 303.795 260.458 304.675C259.008 304.847 258.548 307.016 259.644 308.095C260.4 308.892 261.066 309.732 261.634 310.607C264.235 310.718 266.813 311.024 269.326 311.52C268 309.462 269.418 308.115 272.152 307.628C274.311 307.244 279.52 307.178 282.217 307.171C282.366 307.171 282.51 307.14 282.635 307.081C282.759 307.023 282.858 306.94 282.92 306.843C282.981 306.745 283.003 306.637 282.982 306.53C282.962 306.424 282.899 306.324 282.803 306.243L278.264 302.381C278.172 302.302 278.051 302.243 277.915 302.21C277.78 302.178 277.635 302.174 277.496 302.197Z" fill="white"/>
<path fill-rule="evenodd" clip-rule="evenodd" d="M304.794 315.822C300.021 317.162 296.683 316.883 296.683 316.883L295.665 309.248L303.878 308.949L304.794 315.822Z" fill="white"/>
<path d="M250.971 236.373C258.888 234.653 263.381 228.61 261.006 222.876C258.632 217.141 250.289 213.887 242.372 215.607C234.455 217.327 229.962 223.37 232.337 229.104C234.711 234.839 243.054 238.093 250.971 236.373Z" fill="#FFCCB3"/>
<path d="M251.1 215.635L226.291 209.483L214.743 232.016L246.838 236.063L251.1 215.635Z" fill="#FFCCB3"/>
<path d="M261.506 224.551L274.101 292.722L257.763 296.816L233.066 232.09L261.506 224.551Z" fill="#FFCCB3"/>
<path fill-rule="evenodd" clip-rule="evenodd" d="M209.774 318.599C203.256 316.19 196.539 313.706 189.979 313.414C189.831 313.407 189.683 313.423 189.545 313.462C189.407 313.501 189.282 313.561 189.178 313.637C189.076 313.714 188.997 313.807 188.948 313.908C188.899 314.009 188.881 314.117 188.895 314.224L190.087 322.814C190.111 322.99 190.223 323.155 190.403 323.277C190.581 323.398 190.815 323.469 191.061 323.475L235.81 324.643C239.11 324.729 240.938 323.483 241.526 321.58C241.544 321.514 241.536 321.447 241.503 321.384C241.469 321.322 241.411 321.268 241.337 321.229C241.262 321.189 241.173 321.167 241.081 321.163C240.989 321.159 240.897 321.175 240.817 321.208C235.455 323.387 229.13 323.959 223.193 322.802C218.906 321.975 214.39 320.306 209.774 318.599Z" fill="#5661AE"/>
<path fill-rule="evenodd" clip-rule="evenodd" d="M190.286 292.269C190.286 292.269 192.441 305.794 192.311 307.211C192.178 307.992 191.967 308.765 191.678 309.524C191.219 310.894 190.708 312.421 190.862 313.469C197.14 313.931 203.548 316.3 209.774 318.601C214.39 320.307 218.905 321.975 223.192 322.802C228.843 323.903 234.856 323.44 240.061 321.505C240.301 319.096 237.543 316.78 231.763 316.264C221.405 315.34 215.704 314.654 210.924 309.058C207.527 305.082 208.348 289.768 208.348 289.768L190.286 292.269Z" fill="#FCBA9F"/>
<path fill-rule="evenodd" clip-rule="evenodd" d="M209.988 306.841C208.023 306.981 200.207 307.511 192.648 307.671C191.179 307.702 190.328 309.808 191.219 310.982C191.822 311.844 192.329 312.741 192.734 313.662C195.291 314.021 197.791 314.571 200.192 315.302C199.252 313.135 200.903 311.936 203.701 311.714C205.911 311.54 211.088 311.972 213.763 312.223C213.91 312.237 214.059 312.22 214.193 312.174C214.327 312.128 214.44 312.055 214.518 311.965C214.598 311.874 214.639 311.769 214.638 311.661C214.637 311.554 214.593 311.449 214.512 311.359L210.716 307.097C210.639 307.01 210.53 306.94 210.402 306.895C210.273 306.85 210.13 306.831 209.988 306.841Z" fill="white"/>
<path fill-rule="evenodd" clip-rule="evenodd" d="M234.567 322.956C229.591 323.827 226.333 323.233 226.333 323.233L226.714 315.566L234.91 316.055L234.567 322.956Z" fill="white"/>
<path d="M195.681 239.058C203.842 238.109 209.396 232.549 208.086 226.638C206.776 220.726 199.099 216.704 190.938 217.652C182.777 218.601 177.223 224.162 178.533 230.073C179.843 235.984 187.52 240.007 195.681 239.058Z" stroke="#0072C6" stroke-width="1.0969" stroke-miterlimit="10"/>
<path d="M208.277 228.345L208.348 297.124L191.408 299.622L178.712 233.102L208.277 228.345Z" fill="#FCBA9F"/>
<path d="M163.931 203.233C163.931 203.233 159.377 219.378 165.345 226.124C172.901 234.664 182.141 235.971 188.97 236.063L225.864 233.758C225.864 233.758 225.62 218.393 239.285 212.653C239.285 212.653 183.282 197.682 163.931 203.233Z" fill="#5661AE"/>
<path d="M149.729 120.869L146.798 131.711L129.836 130.877L133.086 119.353L149.729 120.869Z" fill="#FFCCB3"/>
<path d="M149.558 121.5L148.135 126.766C148.135 126.766 144.237 124.36 143.484 120.604L149.558 121.5Z" fill="#FCBA9F"/>
<path d="M124.607 133.959C124.607 133.959 128.471 126.658 130.776 127.545C136.255 129.652 144.259 129.261 147.802 127.995C149.926 127.236 150.006 133.959 150.006 133.959H124.607Z" fill="#E02E2E"/>
<path d="M124.607 133.959L108.331 135.539C107.884 135.582 107.478 135.75 107.2 136.007C106.921 136.263 106.792 136.588 106.839 136.913L118.203 215.004L176.518 210.857L169.301 136.548L150.006 133.959H124.607Z" fill="#E02E2E"/>
<path d="M166.105 156.21L161.557 150.218L162.676 156.21H166.105Z" fill="#FF967C"/>
<path d="M168.289 136.412C174.438 137.095 179.593 140.063 181.315 142.656L196.527 167.758L233.882 146.119L244.501 154.22L210.923 184.269C204.17 190.71 192.489 193.361 184.534 184.961L171.824 170.5L168.289 136.412Z" fill="#E02E2E"/>
<path d="M196.527 167.757L200.777 173.809L204.012 163.421L196.527 167.757Z" fill="#FF967C"/>
<path d="M108.455 135.527C108.455 135.527 104.063 135.47 100.37 140.151C96.6774 144.832 81.7221 173.184 81.7221 173.184C81.7221 173.184 74.8907 183.882 88.7385 184.284H117.726L108.455 135.527Z" fill="#E02E2E"/>
<path d="M111.726 156.21L110.513 152.284L107.459 156.21H111.726Z" fill="#FF967C"/>
<path d="M188.411 236.036H125.104C123.111 236.036 121.183 235.515 119.677 234.569C118.171 233.623 117.186 232.315 116.905 230.885L103.526 163.059C103.358 162.208 103.445 161.34 103.78 160.516C104.115 159.691 104.691 158.928 105.468 158.279C106.246 157.63 107.207 157.109 108.287 156.752C109.366 156.395 110.539 156.21 111.726 156.21H175.033C177.026 156.21 178.953 156.731 180.46 157.678C181.966 158.623 182.95 159.932 183.232 161.361L196.611 229.188C196.779 230.039 196.692 230.906 196.357 231.731C196.022 232.555 195.446 233.318 194.668 233.967C193.891 234.617 192.93 235.138 191.85 235.495C190.771 235.851 189.597 236.036 188.411 236.036Z" fill="#0072C6"/>
<path d="M184.144 236.036H232.626C233.042 236.036 233.451 235.956 233.811 235.805C234.171 235.653 234.469 235.436 234.676 235.174C234.882 234.912 234.989 234.616 234.986 234.314C234.983 234.012 234.87 233.717 234.659 233.457C234.493 233.254 234.272 233.078 234.009 232.94C233.745 232.803 233.445 232.706 233.127 232.656L193.88 226.476L184.144 236.036Z" fill="#0072C6"/>
<path d="M184.143 236.036H120.837C118.843 236.036 116.916 235.515 115.41 234.569C113.904 233.623 112.919 232.315 112.637 230.885L99.2591 163.059C99.0911 162.208 99.1778 161.34 99.5127 160.516C99.8476 159.691 100.424 158.928 101.201 158.279C101.979 157.63 102.94 157.109 104.02 156.752C105.099 156.395 106.272 156.21 107.458 156.21H170.765C172.759 156.21 174.686 156.731 176.192 157.678C177.698 158.623 178.683 159.932 178.965 161.361L192.343 229.188C192.511 230.039 192.425 230.906 192.09 231.731C191.754 232.555 191.179 233.318 190.401 233.967C189.623 234.617 188.663 235.138 187.583 235.495C186.503 235.851 185.33 236.036 184.143 236.036Z" fill="url(#paint2_linear_413_16022)"/>
<path d="M442.689 173.701C442.689 173.701 439.271 178.38 438.436 178.916C437.607 179.453 423.867 180.681 421.206 181.371C418.546 182.061 417.275 183.105 417.275 184.04H449.569C449.569 184.04 450.404 183.476 451.008 181.677C451.608 179.879 452.662 179.117 452.662 179.117L442.689 173.701Z" fill="#BC775C"/>
<path d="M396.27 99.9974C398.394 92.4029 393.399 92.5986 391.737 91.3911C391.737 91.3911 385.501 87.6664 380.749 91.1385C375.72 94.8109 346.89 123.34 346.89 123.34L364.929 135.357L368.319 132.426L377.103 124.839L386.497 116.729L387.664 115.806L400.338 105.408C400.338 105.408 395.069 103.996 396.27 99.9974Z" fill="#5661AE"/>
<path d="M403.814 101.292C406.246 96.0332 402.332 90.3422 395.072 88.5809C387.811 86.8197 379.955 89.6547 377.523 94.9133C375.091 100.172 379.006 105.863 386.266 107.624C393.526 109.386 401.383 106.55 403.814 101.292Z" fill="#5661AE"/>
<path d="M387.498 115.765C387.862 114.178 388.59 111.003 389.372 108.11L393.535 94.1062C393.535 94.1062 382.356 106.073 377.207 114.408C373.393 120.654 368.969 127.02 368.237 132.406L377.019 124.818L386.414 116.709L387.498 115.765Z" fill="#465393"/>
<path d="M328.871 91.221C324.585 85.5578 326.645 84.5968 324.821 81.3746C323.025 78.2307 326.214 70.4367 323.161 71.4992C320.107 72.5622 319.163 75.3864 319.163 75.3864C317.074 72.7102 315.151 67.7869 310.151 67.2234C305.152 66.66 304.709 67.7997 301.875 69.4838C294.336 74.0274 303.949 80.8554 305.554 83.4556C306.587 85.0855 314.172 90.0546 315.012 91.1404L318.83 95.1519L328.871 91.221Z" fill="#BC775C"/>
<path d="M314.143 75.7376L308.051 67.5901" stroke="#93523E" stroke-width="1.07832" stroke-linecap="round"/>
<path d="M310.151 77.0567L303.511 69.4692" stroke="#93523E" stroke-width="1.07832" stroke-linecap="round"/>
<path d="M305.409 78.5153L301.614 73.9202" stroke="#93523E" stroke-width="1.07832" stroke-linecap="round"/>
<path d="M315.648 82.9097C315.68 80.0886 318.017 76.675 318.017 76.675" stroke="#93523E" stroke-width="1.07832" stroke-linecap="round"/>
<path d="M365.081 123.113L328.4 87.7291C328.166 87.5214 327.834 87.3834 327.468 87.3424C327.102 87.3009 326.728 87.3594 326.419 87.5059L316.813 92.1072C316.357 92.3312 316.032 92.6699 315.901 93.0578C315.771 93.4457 315.843 93.8553 316.106 94.2064L345.605 133.611L365.081 123.113Z" fill="#5661AE"/>
<path d="M356.169 138.057C362.953 138.057 368.453 134.074 368.453 129.16C368.453 124.246 362.953 120.262 356.169 120.262C349.385 120.262 343.885 124.246 343.885 129.16C343.885 134.074 349.385 138.057 356.169 138.057Z" fill="#5661AE"/>
<path d="M407.494 83.3928C407.494 83.3928 389.585 87.5194 386.051 88.5898C382.518 89.6605 382.282 93.9433 382.046 96.9767C381.881 99.1022 385.194 134.004 385.411 154.217C385.458 158.536 384.346 161.276 383.632 163.676C382.918 166.076 383.632 167.382 383.632 167.382L460.371 167.88C460.371 167.88 458.07 97.6479 457.6 95.15C457.129 92.6517 460.831 90.5002 456.819 89.2427L427.515 83.3928H407.494Z" fill="white"/>
<path d="M397.865 85.6455C397.865 85.6455 400.788 95.3333 402.704 103.087C404.62 110.84 405.203 175.026 405.203 175.026C405.203 175.026 382.779 171.868 379.741 168.137C376.704 164.405 382.555 147.64 383.01 132.406C383.466 117.172 379.039 93.5318 383.687 89.4304C383.687 89.4304 384.879 88.5747 397.865 85.6455Z" fill="#5661AE"/>
<path d="M435.552 85.0227C435.552 85.0227 424.913 101.08 425.563 105.974C426.215 110.868 426.251 152.603 425.563 161.317C425.137 166.617 424.022 171.878 422.234 177.027C422.234 177.027 451.26 178.516 462.473 175.973C462.473 175.973 467.802 151.693 464.303 143.019C460.81 134.345 458.14 89.266 458.14 89.266L435.552 85.0227Z" fill="#5661AE"/>
<path d="M443.406 106.601C443.406 106.601 444.492 135.701 444.267 145.401C444.128 151.445 434.584 154.005 434.557 157.505C434.541 159.575 442.09 157.151 444.128 159.292C446.161 161.432 442.684 168.137 442.684 168.137L460.371 167.88L467.46 142.975L452.528 105.103L443.406 106.601Z" fill="#465393"/>
<path d="M407.862 76.9065L406.201 90.4683C406.201 90.4683 405.758 92.5748 410.809 93.2413C414.82 93.7703 423.155 90.3567 425.036 89.2321C429.218 86.7327 429.604 85.2202 429.162 84.0619C428.529 82.4022 426.461 70.707 426.461 70.707L407.862 76.9065Z" fill="#BC775C"/>
<path d="M406.771 88.0055L407.795 79.6464L416.71 76.4568L406.771 88.0055Z" fill="#93523E" stroke="#93523E"/>
<path d="M397.952 51.2385C397.952 51.2385 394.537 62.3186 394.082 69.8647C393.624 77.4782 397.38 78.9278 402.036 79.4963C405.709 79.9447 411.422 79.9772 415.015 78.6779C421.566 76.3083 432.321 70.5572 433.728 69.4415C435.911 67.714 435.761 60.0091 427.435 58.1037C421.381 56.7175 405.943 44.9507 397.952 51.2385Z" fill="#BC775C"/>
<path d="M397.986 52.4202C402.952 53.8303 412.3 52.9038 417.434 54.1109C422.562 55.3211 417.896 56.5987 418.119 60.1867C418.263 62.5106 418.507 66.9515 420.476 66.8926C422.445 66.8341 423.605 61.7906 427.757 61.9828C431.908 62.1789 433.866 63.4631 433.774 65.3864C433.685 67.3061 430.701 68.979 428.348 69.8672C425.402 70.9724 424.186 70.5089 424.186 70.5089C424.186 70.5089 427.502 79.3519 428.002 79.0016C428.002 79.0016 431.579 77.5395 432.224 74.98C432.224 74.98 436.97 74.2352 435.921 70.7968C435.921 70.7968 438.875 70.1098 437.473 68.1191C437.473 68.1191 445.113 64.3982 441.132 59.8449C441.132 59.8449 444.754 57.2269 440.426 56.1197C440.426 56.1197 446.161 50.0505 438.003 48.7566C438.003 48.7566 438.548 45.8999 434.814 46.0087C434.814 46.0087 433.184 41.0951 425.035 43.033C424.996 42.0491 424.548 41.0966 423.749 40.3007C422.949 39.5047 421.836 38.9021 420.556 38.5724C415.941 37.2261 412.937 39.0788 412.937 39.0788C412.937 39.0788 408.094 36.2174 405.544 40.4127C405.544 40.4127 401.881 39.0564 399.134 40.4975C396.384 41.934 397.721 44.9454 397.721 44.9454C397.721 44.9454 394.578 44.4118 393.431 46.2974C391.811 48.9508 394.086 49.9176 394.086 49.9176C394.086 49.9176 388.968 54.2996 396.165 58.4503L397.986 52.4202Z" fill="#493212"/>
<path d="M410.485 63.3588C410.755 62.4625 410.317 61.6321 409.506 61.5038C408.695 61.3755 407.82 61.9983 407.55 62.8942C407.279 63.7901 407.717 64.6206 408.528 64.7488C409.338 64.8771 410.214 64.2548 410.485 63.3588Z" fill="#080B09"/>
<path d="M399.332 61.5394C399.602 60.6434 399.165 59.813 398.354 59.6847C397.543 59.5565 396.667 60.1788 396.397 61.0751C396.127 61.9711 396.564 62.8015 397.375 62.9298C398.185 63.058 399.062 62.4357 399.332 61.5394Z" fill="#080B09"/>
<path d="M401.537 63.9187C401.537 63.9187 402.922 65.8508 400.92 65.8803C399.008 65.8609 397.894 66.6735 399.823 67.8512" stroke="#93523E" stroke-width="1.07832" stroke-linecap="round"/>
<path d="M400.119 69.6376L400.127 69.6384L400.136 69.6388C401.322 69.7004 403.691 69.824 405.265 69.9251H405.268C405.314 69.9279 405.358 69.9395 405.396 69.9588C405.433 69.9786 405.462 70.005 405.48 70.036C405.498 70.0666 405.504 70.1003 405.498 70.1332C405.491 70.165 405.474 70.1952 405.446 70.2204C405.1 70.4967 404.644 70.8253 404.137 71.1086C403.625 71.395 403.079 71.6252 402.553 71.7166C402.039 71.8065 401.553 71.7627 401.119 71.5105C400.672 71.25 400.244 70.749 399.924 69.8674L399.919 69.8523L399.91 69.838C399.896 69.8147 399.89 69.7887 399.895 69.7635C399.898 69.738 399.912 69.7139 399.933 69.6934C399.955 69.6729 399.983 69.657 400.016 69.6473C400.048 69.6372 400.084 69.6341 400.119 69.6376Z" fill="#93523E" stroke="#93523E"/>
<path d="M414.371 60.4059L414.26 60.5683C414.126 60.8151 413.864 61.0136 413.529 61.1209C413.194 61.2278 412.815 61.2348 412.474 61.1399L406.662 59.3976C406.376 59.3217 406.14 59.1705 406 58.9745C405.861 58.7784 405.827 58.5513 405.908 58.3385C405.949 58.2064 406.027 58.082 406.14 57.9739C406.252 57.8654 406.394 57.7759 406.558 57.7104C406.721 57.6449 406.902 57.605 407.088 57.5941C407.274 57.5829 407.461 57.6003 407.637 57.6457L413.56 59.2259C413.722 59.2628 413.872 59.3232 414.001 59.403C414.13 59.4833 414.235 59.5813 414.311 59.6913C414.387 59.8014 414.431 59.9215 414.441 60.0444C414.452 60.1672 414.427 60.2901 414.371 60.4059Z" fill="#080B09"/>
<path d="M394.761 56.4871L401.059 56.1798C401.246 56.172 401.432 56.1933 401.606 56.2422C401.781 56.291 401.938 56.3658 402.07 56.4619C402.201 56.558 402.303 56.6735 402.369 56.8002C402.434 56.9269 402.461 57.0621 402.449 57.1974C402.444 57.4179 402.324 57.6291 402.113 57.7887C401.903 57.9484 401.617 58.0449 401.313 58.0596L395.059 58.5452C394.695 58.5665 394.333 58.4828 394.054 58.3115C393.775 58.1406 393.6 57.8965 393.568 57.6326L393.525 57.4543C393.515 57.3315 393.54 57.2082 393.597 57.0928C393.655 56.9769 393.744 56.8707 393.86 56.7804C393.975 56.6901 394.115 56.6177 394.27 56.5673C394.424 56.5169 394.592 56.4898 394.761 56.4871Z" fill="#080B09"/>
<path d="M458.718 96.2443C450.811 91.0226 448.478 94.2269 446.194 94.6396C446.194 94.6396 438.581 96.6008 440.25 101.337C442.015 106.349 460.992 138.923 460.992 138.923L484.938 134.817L482.766 130.274L478.293 120.918L473.516 110.913L473.018 109.713L467.214 96.4962C467.214 96.4962 462.837 99.0449 458.718 96.2443Z" fill="#5661AE"/>
<path d="M462.613 106.379C468.428 102.773 469.107 96.4339 464.127 92.2212C459.146 88.0082 450.393 87.5168 444.578 91.1234C438.762 94.73 438.083 101.069 443.064 105.282C448.045 109.495 456.792 109.986 462.613 106.379Z" fill="#5661AE"/>
<path d="M460.81 134.345L439.629 175.85C439.517 176.105 439.538 176.381 439.688 176.626C439.838 176.871 440.105 177.067 440.448 177.177L450.987 180.53C451.495 180.687 452.068 180.701 452.587 180.571C453.106 180.44 453.544 180.174 453.806 179.824L483.547 140.514L460.81 134.345Z" fill="#5661AE"/>
<path d="M472.654 145.392C479.438 145.392 484.938 141.408 484.938 136.494C484.938 131.58 479.438 127.596 472.654 127.596C465.871 127.596 460.371 131.58 460.371 136.494C460.371 141.408 465.871 145.392 472.654 145.392Z" fill="#5661AE"/>
<path d="M140.973 236.036H187.124C187.124 239.724 185.102 243.261 181.502 245.869C177.901 248.477 173.018 249.942 167.927 249.942H160.171C155.08 249.942 150.196 248.477 146.596 245.869C142.996 243.261 140.973 239.724 140.973 236.036Z" fill="#E7EFFF"/>
<path d="M165.073 249.942H163.024V316.785H165.073V249.942Z" fill="#0072C6"/>
<path d="M163.025 316.785L134.893 323.388H192.768L165.074 316.785H163.025Z" fill="#0072C6"/>
<path d="M71.6393 190.334L21.5796 320.498H31.7772L89.6383 190.334H71.6393Z" fill="#E7EFFF"/>
<path d="M71.6395 190.334L67.9641 199.89L87.1443 195.945L89.6385 190.334H71.6395Z" fill="#96BAFD"/>
<path d="M498.388 190.334L548.448 320.498H538.251L480.385 190.334H498.388Z" fill="#D1E8F7"/>
<path d="M498.388 190.334L501.197 197.64L482.98 196.166L480.385 190.334H498.388Z" fill="#0072C6"/>
<path d="M150.499 97.8864C150.499 97.8864 157.23 106.684 159.565 110.315C161.899 113.946 162.698 117.863 158.809 119.665C153.519 122.119 147.665 121.574 141.357 121.063C135.895 120.621 129.052 109.49 129.89 106.758C130.729 104.025 140.226 93.0634 150.499 97.8864Z" fill="#FFCCB3"/>
<path d="M155.517 107.97C156.008 107.683 155.932 107.026 155.348 106.503C154.764 105.98 153.893 105.788 153.403 106.075C152.913 106.362 152.989 107.019 153.573 107.542C154.156 108.066 155.027 108.257 155.517 107.97Z" fill="#080B09"/>
<path d="M148.266 106.632L153.402 103.987C153.277 103.881 153.123 103.796 152.949 103.737C152.775 103.677 152.587 103.645 152.394 103.641C152.202 103.638 152.012 103.664 151.834 103.717C151.657 103.77 151.497 103.85 151.365 103.95L147.962 106.449C147.841 106.52 148.085 106.739 148.266 106.632Z" fill="#080B09"/>
<path d="M158.593 113.43C157.904 113.741 157.108 113.906 156.296 113.906C155.484 113.906 154.688 113.741 153.998 113.43" stroke="#EF6A77" stroke-miterlimit="10" stroke-linecap="round"/>
<path d="M145.671 103.163L156.669 99.1341C156.669 99.1341 152.68 89.7376 138.07 88.7561C127.351 88.0357 117.389 92.3162 113.528 99.0031C109.667 105.69 112.968 116.708 122.76 119.353C131.042 121.59 130.776 127.545 130.776 127.545L142.903 116.025C142.903 116.025 134.513 113.069 136.525 109.46C139.252 104.567 146.107 110.223 146.107 110.223L141.469 100.446L145.671 103.163Z" fill="#1F2D49"/>
<path d="M157.294 107.022C157.294 107.022 159.128 108.753 160.238 109.088C161.348 109.422 160.354 110.651 159.615 110.822C158.875 110.993 156.872 107.84 157.294 107.022Z" fill="#FFCCB3"/>
<path d="M111.954 116.462C119.151 116.462 124.985 112.236 124.985 107.023C124.985 101.81 119.151 97.5835 111.954 97.5835C104.757 97.5835 98.9221 101.81 98.9221 107.023C98.9221 112.236 104.757 116.462 111.954 116.462Z" fill="#0D1B33"/>
<path d="M110.512 116.876C117.71 116.876 123.544 112.651 123.544 107.437C123.544 102.224 117.71 97.9983 110.512 97.9983C103.316 97.9983 97.481 102.224 97.481 107.437C97.481 112.651 103.316 116.876 110.512 116.876Z" fill="#1F2D49"/>
<path d="M238.329 17.5923H103.515C101.118 17.5923 99.1741 19.0001 99.1741 20.7366V80.2485C99.1741 81.985 101.118 83.3928 103.515 83.3928H238.329C240.726 83.3928 242.67 81.985 242.67 80.2485V20.7366C242.67 19.0001 240.726 17.5923 238.329 17.5923Z" fill="#E02E2E"/>
<path d="M192.428 96.6758H199.636" stroke="#D4DCF4" stroke-width="12" stroke-miterlimit="10" stroke-linecap="round"/>
<path d="M215.501 96.6758H282.62" stroke="#5661AE" stroke-width="12" stroke-miterlimit="10" stroke-linecap="round"/>
<path d="M192.428 108.111H199.636" stroke="#D4DCF4" stroke-width="12" stroke-miterlimit="10" stroke-linecap="round"/>
<path d="M215.501 108.111H246.751" stroke="#5661AE" stroke-width="12" stroke-miterlimit="10" stroke-linecap="round"/>
<path d="M192.428 119.746H199.636" stroke="#D4DCF4" stroke-width="12" stroke-miterlimit="10" stroke-linecap="round"/>
<path d="M215.501 119.746H269.243" stroke="#5661AE" stroke-width="12" stroke-miterlimit="10" stroke-linecap="round"/>
<path d="M108.716 52.8947C108.716 52.8947 120.596 51.0823 124.364 55.2671C128.132 59.4518 131.9 67.3133 140.442 66.2938C148.982 65.2746 153.105 44.7128 161.645 44.8945C170.186 45.0766 168.828 58.5423 178.122 58.7241C187.417 58.9062 184.826 51.1986 191.032 51.4094C198.56 51.6648 197.716 67.64 207.513 67.8217C217.31 68.0039 216.305 46.7154 231.126 47.0793" stroke="white" stroke-width="6.35676" stroke-miterlimit="10" stroke-linecap="round"/>
<path d="M112.505 27.5535H136.223" stroke="white" stroke-width="10.0826" stroke-miterlimit="10" stroke-linecap="round"/>
<path opacity="0.4" d="M112.505 35.5708H161.521" stroke="white" stroke-width="10.0826" stroke-miterlimit="10" stroke-linecap="round"/>
<path opacity="0.4" d="M302.854 61.6929C311.369 61.6929 318.273 56.6924 318.273 50.524C318.273 44.3559 311.369 39.3555 302.854 39.3555C294.337 39.3555 287.434 44.3559 287.434 50.524C287.434 56.6924 294.337 61.6929 302.854 61.6929Z" fill="white"/>
<path d="M298.083 47.449V54.5378C298.083 54.7343 298.154 54.9276 298.288 55.0981C298.423 55.269 298.616 55.4116 298.849 55.5116C299.082 55.612 299.348 55.6662 299.619 55.6697C299.891 55.6732 300.158 55.6255 300.396 55.531L309.343 51.9868C309.589 51.8891 309.794 51.7457 309.937 51.571C310.08 51.3962 310.155 51.1966 310.155 50.9936C310.155 50.7901 310.08 50.591 309.937 50.4162C309.794 50.2414 309.589 50.0977 309.343 50L300.396 46.4558C300.158 46.3616 299.89 46.3136 299.619 46.3171C299.348 46.3206 299.082 46.3752 298.849 46.4752C298.616 46.5755 298.423 46.7178 298.288 46.8887C298.154 47.0595 298.083 47.2525 298.083 47.449Z" fill="white"/>
<path d="M97.8125 0H358.542C360.463 0 362.305 0.552593 363.663 1.53649C365.021 2.52 365.784 3.85421 365.784 5.24538V13.1472H90.5708V5.24538C90.5708 3.85421 91.3337 2.52 92.6921 1.53649C94.0499 0.552593 95.8919 0 97.8125 0Z" fill="#0072C6"/>
<path d="M522.292 184.04H445.423V190.334H522.292V184.04Z" fill="#96BAFD"/>
<path d="M429.395 190.334L479.454 320.498H469.257L411.396 190.334H429.395Z" fill="#E7EFFF"/>
<path d="M429.395 190.334L433.07 199.89L413.89 195.945L411.396 190.334H429.395Z" fill="#0072C6"/>
<path d="M494.21 78.3454C515.064 78.3454 531.97 66.0996 531.97 50.9936C531.97 35.8872 515.064 23.6414 494.21 23.6414C473.35 23.6414 456.444 35.8872 456.444 50.9936C456.444 66.0996 473.35 78.3454 494.21 78.3454Z" fill="#E02E2E"/>
<path d="M507.665 50.3286C507.665 48.5596 507.001 46.8236 505.744 45.3068C504.487 43.7901 502.684 42.5497 500.528 41.7185C498.372 40.8868 495.943 40.4958 493.503 40.5869C491.064 40.678 488.704 41.2476 486.682 42.2354C484.654 43.2232 483.039 44.5911 482.001 46.1935C480.963 47.7958 480.551 49.5718 480.802 51.3319C481.054 53.0916 481.958 54.7687 483.424 56.1835C484.89 57.5987 486.864 58.6985 489.127 59.365V62.5659H499.271V59.365C501.753 58.6338 503.877 57.3837 505.37 55.7739C506.868 54.1646 507.665 52.2685 507.665 50.3286Z" stroke="white" stroke-width="3.71807" stroke-linecap="round" stroke-linejoin="round"/>
<path d="M489.127 62.5659H499.308V64.1357C499.308 64.8007 498.944 65.4386 498.291 65.909C497.644 66.3794 496.761 66.6437 495.846 66.6437H492.588C491.668 66.6437 490.791 66.3794 490.138 65.909C489.491 65.4386 489.127 64.8007 489.127 64.1357V62.5659Z" stroke="white" stroke-width="3.71807" stroke-linecap="round" stroke-linejoin="round"/>
<path d="M491.925 62.566V51.3681C491.925 51.0999 491.775 50.843 491.513 50.6535C491.251 50.464 490.898 50.3574 490.529 50.3574H490.486C490.117 50.3574 489.758 50.464 489.502 50.6535C489.239 50.843 489.09 51.0999 489.09 51.3681C489.09 51.5006 489.127 51.632 489.197 51.7548C489.266 51.8773 489.368 51.9885 489.502 52.0826C489.63 52.1764 489.785 52.2508 489.951 52.3016C490.122 52.3523 490.304 52.3783 490.486 52.3783H497.912C498.094 52.3783 498.276 52.3523 498.447 52.3016C498.613 52.2508 498.768 52.1764 498.896 52.0826C499.03 51.9885 499.132 51.8773 499.201 51.7548C499.271 51.632 499.308 51.5006 499.308 51.3681C499.308 51.0999 499.158 50.843 498.896 50.6535C498.634 50.464 498.281 50.3574 497.912 50.3574H497.789C497.42 50.3574 497.066 50.464 496.804 50.6535C496.542 50.843 496.392 51.0999 496.392 51.3681V62.566" stroke="white" stroke-width="3.71807" stroke-linecap="round" stroke-linejoin="round"/>
<path d="M494.215 35.3433V37.8466" stroke="white" stroke-width="3.71807" stroke-linecap="round" stroke-linejoin="round"/>
<path d="M481.755 37.7546L483.483 39.9228" stroke="white" stroke-width="3.71807" stroke-linecap="round" stroke-linejoin="round"/>
<path d="M472.633 44.3552L475.624 45.6069" stroke="white" stroke-width="3.71807" stroke-linecap="round" stroke-linejoin="round"/>
<path d="M515.781 44.3765L512.79 45.6281" stroke="white" stroke-width="3.71807" stroke-linecap="round" stroke-linejoin="round"/>
<path d="M506.67 37.7671L504.942 39.9348" stroke="white" stroke-width="3.71807" stroke-linecap="round" stroke-linejoin="round"/>
<path d="M79.2149 17.5923H51.1986C49.2427 17.5923 47.6575 18.7409 47.6575 20.1576V40.4502C47.6575 41.8669 49.2427 43.0155 51.1986 43.0155H79.2149C81.1708 43.0155 82.756 41.8669 82.756 40.4502V20.1576C82.756 18.7409 81.1708 17.5923 79.2149 17.5923Z" fill="#0072C6"/>
<path d="M79.2149 48.9812H51.1986C49.2427 48.9812 47.6575 50.1298 47.6575 51.5462V71.8391C47.6575 73.2558 49.2427 74.404 51.1986 74.404H79.2149C81.1708 74.404 82.756 73.2558 82.756 71.8391V51.5462C82.756 50.1298 81.1708 48.9812 79.2149 48.9812Z" fill="#0072C6"/>
<path d="M76.6282 58.2661C76.61 57.5768 76.4292 56.8944 76.0948 56.2484C75.799 55.6958 75.3474 55.1939 74.7691 54.7746C74.1902 54.3557 73.4974 54.0287 72.7345 53.8144C71.8427 53.5726 70.9005 53.4416 69.9488 53.428C68.7193 53.3858 68.3293 53.3757 65.2113 53.3757C62.0934 53.3757 61.7028 53.3858 60.4782 53.4246C59.5259 53.4381 58.5843 53.5687 57.6925 53.8113C56.9296 54.0252 56.2368 54.3523 55.6579 54.7716C55.0796 55.1905 54.628 55.6927 54.3322 56.2453C53.9978 56.8909 53.8175 57.5733 53.7988 58.2631C53.7405 59.1536 53.7266 59.436 53.7266 61.6945C53.7266 63.9529 53.7405 64.2354 53.794 65.1224C53.8127 65.8122 53.993 66.4946 54.3279 67.1406C54.6237 67.6932 55.0748 68.195 55.6536 68.6143C56.232 69.0332 56.9248 69.3603 57.6882 69.5742C58.5795 69.8164 59.5217 69.9473 60.474 69.9609C61.6986 70 62.0891 70.0097 65.2071 70.0097C68.3245 70.0097 68.7151 70 69.9397 69.9609C70.892 69.9473 71.8341 69.8168 72.7254 69.5742C73.4888 69.3607 74.1817 69.0336 74.7605 68.6147C75.3394 68.1954 75.7904 67.6932 76.0857 67.1406C76.4201 66.4946 76.6004 65.8122 76.6196 65.1224C76.6731 64.2354 76.6871 63.9529 76.6871 61.6945C76.6871 59.436 76.6822 59.1536 76.6282 58.2661ZM74.5604 65.0577C74.5529 65.5847 74.4192 66.1071 74.1656 66.6012C73.9741 66.96 73.6814 67.2855 73.3059 67.5576C72.9303 67.8296 72.4804 68.0416 71.9855 68.1803C71.3028 68.364 70.5822 68.4605 69.8546 68.4663C68.6434 68.5054 68.2801 68.5151 65.2156 68.5151C62.1517 68.5151 61.7842 68.5054 60.5772 68.4663C59.8491 68.4608 59.1284 68.3644 58.4463 68.1803C57.9477 68.0478 57.4967 67.8358 57.1275 67.5595C56.7472 67.2913 56.4545 66.965 56.2705 66.6043C56.0169 66.1102 55.8837 65.5878 55.8756 65.0608C55.8216 64.1835 55.8082 63.9203 55.8082 61.7011C55.8082 59.4814 55.8216 59.2152 55.8756 58.3409C55.8831 57.8139 56.0163 57.2915 56.2705 56.7975C56.4534 56.4359 56.7477 56.1089 57.1318 55.8423C57.502 55.5667 57.9525 55.3548 58.4506 55.2215C59.1327 55.0382 59.8539 54.9413 60.5815 54.9355C61.7927 54.8967 62.1565 54.887 65.2204 54.887C68.2887 54.887 68.6519 54.8967 69.8589 54.9355C70.5865 54.9409 71.3077 55.0378 71.9898 55.2215C72.4884 55.354 72.9389 55.566 73.3085 55.8423C73.6889 56.1104 73.9816 56.4371 74.1656 56.7975C74.4192 57.2919 74.5524 57.8139 74.5604 58.3409C74.6145 59.2183 74.6279 59.4814 74.6279 61.7011C74.6279 63.9203 74.6145 64.1804 74.5604 65.0577Z" fill="white"/>
<path d="M65.2115 57.4211C64.0446 57.4211 62.904 57.6719 61.9341 58.1415C60.9641 58.6108 60.2077 59.2781 59.7615 60.0589C59.3147 60.8398 59.1981 61.6989 59.4255 62.5278C59.6534 63.3567 60.2151 64.1182 61.0401 64.7157C61.8651 65.3132 62.9163 65.7201 64.0607 65.8852C65.2051 66.0499 66.3911 65.9654 67.4692 65.6419C68.5472 65.3187 69.4685 64.7707 70.1163 64.0682C70.7648 63.3656 71.1109 62.5394 71.1109 61.6943C71.1104 60.5612 70.4887 59.4742 69.3823 58.6732C68.276 57.8718 66.7758 57.4215 65.2115 57.4211ZM65.2115 64.4661C64.4545 64.4661 63.7146 64.3034 63.0854 63.9988C62.4562 63.6942 61.9656 63.2614 61.6762 62.7549C61.3862 62.2484 61.3108 61.6912 61.4585 61.1533C61.6061 60.6158 61.9705 60.1217 62.5055 59.7342C63.041 59.3467 63.7226 59.0828 64.4652 58.9759C65.2072 58.8689 65.9765 58.9235 66.6758 59.1336C67.375 59.3432 67.9726 59.6986 68.3931 60.1543C68.8136 60.61 69.0383 61.1459 69.0383 61.6943C69.0378 62.4294 68.6349 63.1343 67.917 63.6539C67.1995 64.174 66.2264 64.4658 65.2115 64.4661Z" fill="white"/>
<path d="M72.7212 57.2523C72.7212 57.4496 72.6404 57.6426 72.489 57.8069C72.3376 57.9708 72.1225 58.0987 71.8711 58.1742C71.6196 58.2498 71.3425 58.2696 71.0756 58.2308C70.8081 58.1924 70.563 58.0975 70.3699 57.958C70.1773 57.8185 70.0462 57.6406 69.9933 57.4473C69.9398 57.2535 69.967 57.0532 70.0714 56.8706C70.1757 56.6885 70.3522 56.5327 70.5785 56.4231C70.8054 56.3134 71.0713 56.2549 71.3441 56.2549C71.709 56.2549 72.0594 56.3599 72.3178 56.5471C72.5762 56.7342 72.7212 56.9877 72.7212 57.2523Z" fill="white"/>
<path d="M68.6852 25.8939H70.6856V23.37C69.7177 23.2933 68.7446 23.2557 67.7714 23.2584C64.8867 23.2584 62.911 24.5725 62.911 26.9879V29.2103H59.7283V32.0317H62.911V39.1306H66.8133V32.0325H69.8675L70.3523 29.211H66.8127V27.2673C66.8132 26.4519 67.1166 25.8939 68.6852 25.8939Z" fill="white"/>
</g>
<defs>
<linearGradient id="paint0_linear_413_16022" x1="221.326" y1="-0.320086" x2="236.615" y2="287.81" gradientUnits="userSpaceOnUse">
<stop stop-color="white"/>
<stop offset="1" stop-color="#94B9FF"/>
</linearGradient>
<linearGradient id="paint1_linear_413_16022" x1="277.204" y1="184.025" x2="277.224" y2="197.526" gradientUnits="userSpaceOnUse">
<stop stop-color="white"/>
<stop offset="1" stop-color="#94B9FF"/>
</linearGradient>
<linearGradient id="paint2_linear_413_16022" x1="143.48" y1="156.021" x2="159.237" y2="325.796" gradientUnits="userSpaceOnUse">
<stop stop-color="white"/>
<stop offset="1" stop-color="#94B9FF"/>
</linearGradient>
</defs>
</svg>
