<svg width="719" height="394" viewBox="0 0 719 394" fill="none" xmlns="http://www.w3.org/2000/svg">
<path d="M251.4 12.2666L251 24.6666L238.733 25.0666L226.333 25.4666V125.867V226.4L215.8 255.2C207.933 277.067 205.8 283.867 207.533 283.467C208.733 283.067 222.2 279.733 237.533 276.133L265.266 269.333H375.8H486.2L486.6 257.6L487 246L499.4 245.6L511.666 245.2V122.667V-3.10608e-05H381.666H251.8L251.4 12.2666ZM498.066 122.933L498.333 230.667H492.333H486.333V207.333V184H479.666H473V207.333V230.667H448.333H423.666V238V245.333H448.466H473.133L472.733 250.267L472.333 255.333L363.666 256L255 256.667L242.733 259.867C235.933 261.733 230.066 262.8 229.666 262.4C229.266 262 231.666 254.133 235 245.067L241 228.267V133.467V38.6666H246.333H251.666V63.3333V88H259H266.333V63.3333V38.6666H290.333H314.333V32V25.3333H290.333H266.333V20V14.6666L382.066 14.9333L497.666 15.3333L498.066 122.933Z" fill="#F22F1D"/>
<path d="M423.667 32V38.6667H448.333H473V63.3333V88H479.667H486.333V56.6667V25.3333H455H423.667V32Z" fill="#F22F1D"/>
<path d="M251.667 214.667V245.333H283H314.333V238V230.667H290.333H266.333V207.333V184H259H251.667V214.667Z" fill="#F22F1D"/>
<path d="M25.6665 309.6C25.1332 311.2 1.66654 386.133 0.199878 390.933C-0.466789 393.067 0.599878 393.333 8.73321 393.333H17.9332L21.1332 382.667L24.3332 372H37.1332H49.7999L52.8665 382.667L56.0665 393.333H68.4665C75.3999 393.333 80.9999 393.2 80.9999 392.933C80.9999 392.8 75.1332 373.733 67.7999 350.667L54.7332 308.667L40.4665 308.267C29.7999 308 26.1999 308.4 25.6665 309.6ZM41.5332 340.933C43.3999 347.733 44.9999 353.867 44.9999 354.533C44.9999 355.467 41.6665 356 36.8665 356C29.7999 356 28.8665 355.733 29.5332 353.6C33.7999 338.667 37.2665 327.867 37.6665 328.267C37.9332 328.533 39.6665 334.133 41.5332 340.933Z" fill="#F22F1D"/>
<path d="M87.6665 350.667V393.333H155.8C201.8 393.333 225.8 392.8 229.8 391.867C237.8 389.867 247.667 380.8 251.8 371.733C254.6 365.6 255 362.667 255 349.333C255 335.867 254.6 333.333 251.8 328C247.8 320.267 243 315.067 236.333 311.6C231.133 308.667 229.8 308.667 159.4 308.267L87.6665 307.867V350.667ZM224.333 326.8C235.267 338.8 233.4 366 221 376.533L216.733 380H164.2H111.667V350.667V321.2L165.8 321.6L219.933 322L224.333 326.8Z" fill="#F22F1D"/>
<path d="M262.333 315.333V322.533L280.333 322.933L298.333 323.333L279 350.933C259.667 378.4 259.667 378.4 259.667 385.867V393.333H293.667H327.667V386V378.8L307.533 378.4L287.533 378L306.2 351.733L325 325.333V316.667V308H293.667H262.333V315.333Z" fill="#F22F1D"/>
<path d="M334.333 350.667V393.333H345H355.666L355.8 364.267L355.933 335.333L363.266 364.4L370.733 393.467L382.733 393.067L394.866 392.667L401.8 364.933C405.533 349.6 409.133 336.8 409.533 336.4C409.933 335.867 410.333 348.533 410.333 364.4V393.333H421.666H433V350.667V308H416.466H400.066L393.266 332.267C389.533 345.733 386.066 358.4 385.533 360.4C385.133 362.4 384.466 363.867 384.2 363.6C383.933 363.333 380.6 350.667 376.866 335.6L370.066 308H352.2H334.333V350.667Z" fill="#F22F1D"/>
<path d="M464.333 309.6C463.8 311.2 440.333 386.133 438.866 390.933C438.2 393.067 439.266 393.333 447.4 393.333H456.6L459.8 382.667L463 372H475.8H488.466L491.533 382.667L494.733 393.333H507.133C514.066 393.333 519.666 393.2 519.666 392.933C519.666 392.8 513.8 373.733 506.466 350.667L493.4 308.667L479.133 308.267C468.466 308 464.866 308.4 464.333 309.6ZM480.2 340.933C482.066 347.733 483.666 353.867 483.666 354.533C483.666 355.467 480.333 356 475.533 356C468.466 356 467.533 355.733 468.2 353.6C472.466 338.667 475.933 327.867 476.333 328.267C476.6 328.533 478.333 334.133 480.2 340.933Z" fill="#F22F1D"/>
<path d="M523.667 350.667V393.333H532.333H541L541.267 367.6L541.667 342L557.8 367.333L573.933 392.667L586.2 393.067L598.333 393.467V350.667V308H589.667H581V332.933V358L564.6 333.067L548.333 308.133H536.067L523.667 308V350.667Z" fill="#F22F1D"/>
<path d="M606.333 350.667V393.333H618.333H630.333V350.667V308H618.333H606.333V350.667Z" fill="#F22F1D"/>
<path d="M663 309.6C662.467 311.2 639 386.133 637.533 390.933C636.867 393.067 637.933 393.333 646.067 393.333H655.267L658.467 382.667L661.667 372H674.467H687.133L690.2 382.667L693.4 393.333H705.8C712.733 393.333 718.333 393.2 718.333 392.933C718.333 392.8 712.467 373.733 705.133 350.667L692.067 308.667L677.8 308.267C667.133 308 663.533 308.4 663 309.6ZM678.867 340.933C680.733 347.733 682.333 353.867 682.333 354.533C682.333 355.467 679 356 674.2 356C667.133 356 666.2 355.733 666.867 353.6C671.133 338.667 674.6 327.867 675 328.267C675.267 328.533 677 334.133 678.867 340.933Z" fill="#F22F1D"/>
</svg>
