<svg width="477" height="339" viewBox="0 0 477 339" fill="none" xmlns="http://www.w3.org/2000/svg">
<g clip-path="url(#clip0_413_16162)">
<path d="M477 0H0V339H477V0Z" fill="white"/>
<mask id="mask0_413_16162" style="mask-type:luminance" maskUnits="userSpaceOnUse" x="83" y="23" width="311" height="293">
<path d="M393.461 23.1738H83.4751V315.966H393.461V23.1738Z" fill="white"/>
</mask>
<g mask="url(#mask0_413_16162)">
<path d="M240.884 276.614C305.811 276.614 358.446 275.066 358.446 273.158C358.446 271.248 305.811 269.701 240.884 269.701C175.956 269.701 123.323 271.248 123.323 273.158C123.323 275.066 175.956 276.614 240.884 276.614Z" fill="#F5F8FF"/>
<path d="M256.949 271.759H177.128C170.654 271.759 166.295 266.513 167.393 260.043L199.541 70.5635C200.638 64.0927 206.777 58.8472 213.251 58.8472H293.072C299.546 58.8472 303.905 64.0927 302.807 70.5635L270.659 260.043C269.562 266.513 263.423 271.759 256.949 271.759Z" fill="#5CA4E6"/>
<path d="M246.979 271.759H167.158C160.684 271.759 156.326 266.513 157.423 260.043L189.571 70.5635C190.669 64.0927 196.807 58.8472 203.282 58.8472H283.102C289.576 58.8472 293.935 64.0927 292.837 70.5635L260.69 260.043C259.592 266.513 253.453 271.759 246.979 271.759Z" fill="#D1E8F7"/>
<path d="M247.437 265.425H168.849C165.487 265.425 163.224 262.701 163.794 259.341L195.703 71.2656C196.274 67.9057 199.461 65.1821 202.823 65.1821H281.411C284.773 65.1821 287.036 67.9057 286.466 71.2656L254.557 259.341C253.987 262.701 250.799 265.425 247.437 265.425Z" fill="white"/>
<path d="M254.876 128.551H179.732L187.564 85.3102C188.077 82.6737 190.632 80.5364 193.27 80.5364H264.22C266.858 80.5364 268.581 82.6737 268.068 85.3102L260.582 123.777C260.068 126.414 257.514 128.551 254.876 128.551Z" fill="url(#paint0_linear_413_16162)"/>
<path d="M248.819 122.987H136.325C133.687 122.987 131.964 120.849 132.477 118.213L139.963 79.7457C140.476 77.1092 143.03 74.9719 145.669 74.9719H258.163C260.801 74.9719 262.524 77.1092 262.011 79.7457L254.525 118.213C254.012 120.849 251.457 122.987 248.819 122.987Z" fill="#E02E2E"/>
<path d="M241.642 260.521L171.871 260.852C169.232 260.852 167.51 258.715 168.023 256.078L175.509 217.611C176.022 214.975 178.576 212.837 181.214 212.837L250.986 212.506C253.624 212.506 255.347 214.644 254.834 217.28L247.348 255.747C246.835 258.384 244.28 260.521 241.642 260.521Z" fill="#E02E2E"/>
<path d="M179.544 248.872C181.529 233.353 196.283 220.773 212.498 220.773C228.713 220.773 240.248 233.353 238.263 248.872" stroke="#FF967C" stroke-width="16.5208" stroke-miterlimit="10" stroke-linecap="round"/>
<path d="M179.544 248.872C181.529 233.353 196.283 220.773 212.498 220.773C220.523 220.773 227.402 223.854 232.063 228.849" stroke="white" stroke-width="16.5208" stroke-miterlimit="10" stroke-linecap="round"/>
<path d="M233.299 207.068H183.34C180.674 207.068 178.872 204.907 179.315 202.242L189.866 138.815C190.309 136.15 192.83 133.99 195.497 133.99H245.455C248.122 133.99 249.924 136.15 249.481 138.815L238.93 202.242C238.486 204.907 235.966 207.068 233.299 207.068Z" fill="url(#paint1_linear_413_16162)"/>
<path d="M198.724 167.531H191.913C191.538 167.544 191.179 167.683 190.894 167.927C190.61 168.171 190.417 168.505 190.347 168.873L186.648 191.112C186.611 191.277 186.614 191.447 186.654 191.611C186.694 191.774 186.771 191.927 186.879 192.056C186.987 192.186 187.123 192.289 187.277 192.358C187.431 192.427 187.599 192.459 187.767 192.454H194.578C194.953 192.441 195.312 192.301 195.597 192.057C195.882 191.814 196.075 191.48 196.145 191.112L199.844 168.873C199.88 168.708 199.877 168.537 199.837 168.374C199.797 168.21 199.72 168.058 199.612 167.928C199.504 167.799 199.368 167.696 199.214 167.627C199.061 167.558 198.893 167.525 198.724 167.531Z" fill="white"/>
<path d="M211.152 175.14H204.341C203.966 175.152 203.606 175.292 203.322 175.536C203.037 175.78 202.844 176.113 202.774 176.482L200.341 191.112C200.305 191.276 200.307 191.447 200.347 191.611C200.387 191.774 200.465 191.927 200.573 192.056C200.681 192.185 200.816 192.289 200.97 192.358C201.124 192.426 201.292 192.459 201.46 192.454H208.272C208.646 192.441 209.006 192.301 209.29 192.057C209.575 191.813 209.768 191.48 209.838 191.112L212.271 176.482C212.307 176.317 212.305 176.146 212.265 175.983C212.225 175.819 212.148 175.667 212.04 175.537C211.932 175.408 211.796 175.305 211.642 175.236C211.488 175.167 211.32 175.134 211.152 175.14Z" fill="white"/>
<path d="M227.604 153.731H220.792C220.418 153.743 220.058 153.883 219.774 154.127C219.489 154.371 219.296 154.704 219.226 155.073L213.231 191.112C213.196 191.276 213.198 191.447 213.238 191.611C213.278 191.774 213.355 191.927 213.463 192.056C213.571 192.185 213.707 192.289 213.861 192.358C214.015 192.426 214.182 192.459 214.351 192.454H221.162C221.537 192.441 221.896 192.301 222.181 192.057C222.466 191.813 222.658 191.48 222.728 191.112L228.723 155.073C228.759 154.908 228.757 154.737 228.717 154.574C228.677 154.41 228.6 154.258 228.492 154.128C228.384 153.999 228.248 153.896 228.094 153.827C227.94 153.758 227.772 153.725 227.604 153.731Z" fill="white"/>
<path d="M239.325 163.073H232.514C232.139 163.085 231.78 163.225 231.495 163.469C231.211 163.713 231.017 164.047 230.948 164.415L226.507 191.112C226.471 191.276 226.473 191.447 226.513 191.611C226.554 191.774 226.63 191.927 226.738 192.056C226.846 192.185 226.982 192.289 227.136 192.358C227.29 192.427 227.458 192.459 227.626 192.454H234.438C234.813 192.441 235.172 192.301 235.457 192.057C235.741 191.813 235.934 191.48 236.004 191.112L240.445 164.415C240.481 164.25 240.478 164.079 240.438 163.916C240.398 163.752 240.321 163.6 240.213 163.47C240.105 163.341 239.969 163.238 239.815 163.169C239.661 163.1 239.494 163.067 239.325 163.073Z" fill="white"/>
<path d="M194.852 141.793H213.294" stroke="white" stroke-width="10" stroke-miterlimit="10" stroke-linecap="round"/>
<path d="M193.811 148.051H203.032" stroke="white" stroke-width="10" stroke-miterlimit="10" stroke-linecap="round"/>
<path opacity="0.6" d="M188.635 196.986H192.202" stroke="white" stroke-width="6" stroke-miterlimit="10" stroke-linecap="round"/>
<path opacity="0.6" d="M202.329 196.986H205.895" stroke="white" stroke-width="6" stroke-miterlimit="10" stroke-linecap="round"/>
<path opacity="0.6" d="M215.219 196.986H218.786" stroke="white" stroke-width="6" stroke-miterlimit="10" stroke-linecap="round"/>
<path opacity="0.6" d="M228.495 196.986H232.062" stroke="white" stroke-width="6" stroke-miterlimit="10" stroke-linecap="round"/>
<path d="M298.83 207.068H248.872C246.205 207.068 244.403 204.907 244.846 202.242L255.398 138.815C255.841 136.15 258.362 133.99 261.028 133.99H310.987C313.653 133.99 315.456 136.15 315.012 138.815L304.461 202.242C304.018 204.907 301.497 207.068 298.83 207.068Z" fill="url(#paint2_linear_413_16162)"/>
<path d="M262.962 177.092H256.15C255.776 177.105 255.416 177.245 255.132 177.489C254.847 177.733 254.654 178.066 254.584 178.434L252.179 191.112C252.143 191.276 252.145 191.447 252.185 191.611C252.226 191.774 252.303 191.927 252.411 192.056C252.519 192.186 252.654 192.289 252.809 192.358C252.962 192.427 253.13 192.459 253.298 192.454H260.11C260.485 192.441 260.844 192.301 261.129 192.057C261.413 191.813 261.606 191.48 261.676 191.112L264.081 178.434C264.117 178.27 264.115 178.099 264.075 177.935C264.035 177.772 263.957 177.619 263.849 177.49C263.741 177.361 263.606 177.257 263.452 177.188C263.298 177.12 263.13 177.087 262.962 177.092Z" fill="white"/>
<path d="M279.256 157.461H272.444C272.07 157.474 271.711 157.614 271.426 157.858C271.141 158.102 270.948 158.435 270.879 158.803L265.872 191.112C265.837 191.277 265.839 191.447 265.879 191.611C265.919 191.774 265.996 191.927 266.104 192.056C266.212 192.186 266.348 192.289 266.502 192.358C266.656 192.427 266.823 192.459 266.992 192.454H273.804C274.178 192.441 274.537 192.302 274.822 192.058C275.107 191.814 275.3 191.48 275.369 191.112L280.376 158.803C280.411 158.639 280.409 158.468 280.369 158.304C280.329 158.141 280.252 157.988 280.144 157.859C280.036 157.729 279.9 157.626 279.746 157.557C279.592 157.488 279.425 157.456 279.256 157.461Z" fill="white"/>
<path d="M290.881 166.686H284.07C283.695 166.699 283.336 166.838 283.051 167.082C282.767 167.326 282.574 167.66 282.504 168.028L278.763 191.112C278.727 191.277 278.729 191.447 278.769 191.611C278.809 191.774 278.886 191.927 278.994 192.056C279.102 192.186 279.239 192.289 279.392 192.358C279.546 192.427 279.714 192.459 279.882 192.454H286.694C287.068 192.441 287.428 192.302 287.712 192.058C287.997 191.814 288.19 191.48 288.259 191.112L292.001 168.028C292.037 167.863 292.034 167.693 291.994 167.529C291.954 167.365 291.877 167.213 291.769 167.084C291.661 166.954 291.525 166.851 291.371 166.782C291.218 166.713 291.05 166.681 290.881 166.686Z" fill="white"/>
<path d="M304.857 163.073H298.045C297.67 163.085 297.311 163.225 297.027 163.469C296.742 163.713 296.549 164.047 296.479 164.415L292.038 191.112C292.002 191.276 292.005 191.447 292.045 191.611C292.085 191.774 292.162 191.927 292.27 192.056C292.378 192.185 292.514 192.289 292.668 192.358C292.822 192.427 292.989 192.459 293.158 192.454H299.969C300.344 192.441 300.703 192.301 300.988 192.057C301.272 191.813 301.466 191.48 301.535 191.112L305.976 164.415C306.012 164.25 306.01 164.079 305.97 163.916C305.929 163.752 305.853 163.6 305.745 163.47C305.637 163.341 305.5 163.238 305.347 163.169C305.193 163.1 305.025 163.067 304.857 163.073Z" fill="white"/>
<path d="M260.383 141.793H278.825" stroke="white" stroke-width="10" stroke-miterlimit="10" stroke-linecap="round"/>
<path d="M259.342 148.051H268.563" stroke="white" stroke-width="10" stroke-miterlimit="10" stroke-linecap="round"/>
<path opacity="0.6" d="M254.167 196.986H257.734" stroke="white" stroke-width="6" stroke-miterlimit="10" stroke-linecap="round"/>
<path opacity="0.6" d="M267.86 196.986H271.427" stroke="white" stroke-width="6" stroke-miterlimit="10" stroke-linecap="round"/>
<path opacity="0.6" d="M280.751 196.986H284.318" stroke="white" stroke-width="6" stroke-miterlimit="10" stroke-linecap="round"/>
<path opacity="0.6" d="M294.026 196.986H297.593" stroke="white" stroke-width="6" stroke-miterlimit="10" stroke-linecap="round"/>
<path d="M86.773 278.35L100.959 308.01L99.1999 308.85C98.6059 309.134 97.9239 309.171 97.3035 308.951C96.683 308.733 96.1749 308.276 95.8913 307.683L83.8448 282.498C83.5612 281.904 83.5248 281.223 83.7437 280.602C83.963 279.982 84.4195 279.475 85.0134 279.191L86.773 278.35Z" fill="#71C8EA"/>
<path d="M102.218 271.653L92.4272 275.698L97.9197 283.461L106.599 280.814L102.218 271.653Z" fill="#FFCCB3"/>
<path d="M95.964 276.008C95.964 276.008 99.7863 281.908 100.363 285.205C100.94 288.502 102.914 305.178 102.383 306.681C102.001 307.762 100.614 308.226 99.7336 308.324C99.5405 308.344 99.3457 308.304 99.1765 308.209C99.0072 308.114 98.8714 307.969 98.7886 307.793L85.9112 280.87C85.6959 280.421 85.6658 279.906 85.8268 279.435C85.9881 278.963 86.3276 278.574 86.7731 278.35C88.5546 277.456 91.2798 276.116 92.4272 275.698C94.2008 275.053 95.3714 275.057 95.964 276.008Z" fill="#5661AE"/>
<path d="M165.27 290.123L151.966 314.667C151.653 315.246 151.122 315.676 150.492 315.863C149.861 316.05 149.182 315.98 148.603 315.666L146.888 314.738L162.556 285.833L164.271 286.761C164.849 287.074 165.28 287.604 165.467 288.235C165.655 288.865 165.584 289.544 165.27 290.123Z" fill="#71C8EA"/>
<path d="M147.47 278.364L157.043 282.898L151.165 290.373L142.63 287.292L147.47 278.364Z" fill="#FFCCB3"/>
<path d="M153.495 283.029C153.495 283.029 149.379 288.728 148.637 291.992C147.894 295.255 145.079 311.811 145.533 313.339C145.86 314.438 147.222 314.971 148.096 315.113C148.288 315.143 148.485 315.113 148.658 315.027C148.832 314.941 148.975 314.802 149.067 314.631L163.289 288.393C163.527 287.955 163.583 287.442 163.446 286.963C163.309 286.484 162.989 286.079 162.556 285.833C160.822 284.849 158.168 283.373 157.043 282.898C155.304 282.164 154.135 282.109 153.495 283.029Z" fill="#5661AE"/>
<path d="M176.311 243.4C176.311 243.4 179.976 261.59 177.132 265.154L104.66 283.7L98.4795 272.131L140.8 252.938L149.276 241.328L176.311 243.4Z" fill="#D1E8F7"/>
<path d="M157.972 256.379L141.982 261.724L134.52 264.851L144.223 273.575L135.548 275.534L111.887 256.379H157.972Z" fill="#5CA4E6"/>
<path d="M103.021 270.613L103.512 272.322L114.748 281.087L125.303 278.513C125.303 278.513 104.942 268.829 103.021 270.613Z" fill="#5CA4E6"/>
<path d="M123.361 242.339C123.361 242.339 102.869 241.228 92.7111 242.121C86.1706 242.695 83.8128 259.423 89.0323 262.466L145.049 291.13L151.65 279.209L115.514 254.764L141.366 251.129L123.361 242.339Z" fill="#D1E8F7"/>
<path d="M94.4335 263.89C100.485 263.89 105.392 258.987 105.392 252.938C105.392 246.889 100.485 241.986 94.4335 241.986C88.3812 241.986 83.4751 246.889 83.4751 252.938C83.4751 258.987 88.3812 263.89 94.4335 263.89Z" fill="#D1E8F7"/>
<path d="M175.311 265.304C181.363 265.304 186.27 260.401 186.27 254.352C186.27 248.304 181.363 243.4 175.311 243.4C169.259 243.4 164.353 248.304 164.353 254.352C164.353 260.401 169.259 265.304 175.311 265.304Z" fill="#D1E8F7"/>
<path d="M145.293 202.672C144.138 196.976 146.853 197.123 147.757 196.218C147.757 196.218 151.146 193.424 153.729 196.028C156.463 198.782 172.134 220.179 172.134 220.179L162.329 229.192L160.486 226.994L155.711 221.303L150.605 215.221L149.97 214.528L143.082 206.73C143.082 206.73 145.946 205.671 145.293 202.672Z" fill="#5661AE"/>
<path d="M150.731 208.392C154.677 207.071 156.805 202.803 155.483 198.859C154.161 194.915 149.891 192.789 145.944 194.11C141.998 195.431 139.87 199.699 141.192 203.643C142.514 207.587 146.785 209.713 150.731 208.392Z" fill="#5661AE"/>
<path d="M150.061 214.498C149.863 213.307 149.468 210.926 149.042 208.756L146.78 198.254C146.78 198.254 152.856 207.229 155.655 213.48C157.728 218.165 160.133 222.939 160.531 226.978L155.757 221.288L150.65 215.206L150.061 214.498Z" fill="#465393"/>
<path d="M181.928 196.09C184.258 191.843 183.139 191.122 184.13 188.705C185.106 186.347 183.372 180.502 185.032 181.299C186.692 182.096 187.206 184.214 187.206 184.214C188.341 182.207 189.386 178.515 192.104 178.092C194.821 177.669 195.062 178.524 196.602 179.787C200.7 183.195 195.475 188.316 194.603 190.266C194.041 191.489 189.918 195.215 189.462 196.03L187.386 199.038L181.928 196.09Z" fill="#FFCCB3"/>
<path d="M189.934 184.477L193.246 178.367" stroke="#E56441" stroke-width="0.94666" stroke-linecap="round"/>
<path d="M192.104 185.467L195.713 179.776" stroke="#E56441" stroke-width="0.94666" stroke-linecap="round"/>
<path d="M194.682 186.561L196.744 183.115" stroke="#E56441" stroke-width="0.94666" stroke-linecap="round"/>
<path d="M189.116 189.856C189.098 187.741 187.828 185.181 187.828 185.181L189.116 189.856Z" fill="#E56441"/>
<path d="M189.116 189.856C189.098 187.741 187.828 185.181 187.828 185.181" stroke="#E56441" stroke-width="0.94666" stroke-linecap="round"/>
<path d="M162.246 220.008L182.185 193.471C182.311 193.315 182.492 193.212 182.691 193.181C182.889 193.15 183.093 193.194 183.261 193.304L188.482 196.755C188.73 196.923 188.907 197.177 188.978 197.468C189.049 197.759 189.01 198.066 188.867 198.329L172.832 227.882L162.246 220.008Z" fill="#5661AE"/>
<path d="M167.09 231.217C170.778 231.217 173.768 228.23 173.768 224.544C173.768 220.859 170.778 217.871 167.09 217.871C163.403 217.871 160.413 220.859 160.413 224.544C160.413 228.23 163.403 231.217 167.09 231.217Z" fill="#5661AE"/>
<path d="M137.481 190.352C137.481 190.352 148.67 193.311 150.591 194.079C152.512 194.847 152.64 197.918 152.768 200.094C152.896 202.269 152.466 251.129 152.466 251.129L127.703 250.177L109.184 239.344C109.184 239.344 109.989 200.575 110.245 198.783C110.501 196.992 108.489 195.449 110.67 194.547L124.692 190.845L137.481 190.352Z" fill="#5661AE"/>
<path d="M118.847 207.757L119.047 243.857L108.401 231.998L113.551 206.634L118.847 207.757Z" fill="#465393"/>
<path d="M122.866 191.397C122.866 191.397 121.282 194.581 122.866 196.777C124.45 198.973 130.792 201.107 135.124 201.044C139.456 200.981 141.752 196.853 139.788 191.074L132.612 189.059L124.692 190.845L122.866 191.397Z" fill="#465393"/>
<path d="M140.8 163.958C140.8 163.958 143.92 170.686 140.593 172.076C137.265 173.465 137.653 164.284 140.8 163.958Z" fill="#93523E"/>
<path d="M137.281 185.487L138.184 195.658C138.184 195.658 139.049 197.022 135.679 197.738C133.512 198.199 127.674 195.9 126.542 195.21C126.06 194.955 125.683 194.54 125.475 194.036C125.267 193.532 125.241 192.972 125.402 192.451C125.746 191.207 127.172 180.837 127.172 180.837L137.281 185.487Z" fill="#FFCCB3"/>
<path d="M137.455 187.448L132.078 184.793L138.073 194.404L137.455 187.448Z" fill="#FF967C"/>
<path d="M139.009 165.905C139.009 165.905 142.164 173.814 143.309 179.362C144.463 184.96 142.621 186.358 140.19 187.181C138.272 187.831 135.21 188.348 133.127 187.696C129.329 186.508 125.613 183.078 124.724 182.373C123.348 181.283 121.99 176.335 124.006 173.536C126.023 170.736 133.97 161.939 139.009 165.905Z" fill="#FFCCB3"/>
<path d="M134.946 176.822C135.366 176.656 135.502 176.004 135.25 175.364C134.998 174.723 134.453 174.338 134.034 174.503C133.614 174.668 133.478 175.321 133.73 175.961C133.982 176.601 134.527 176.986 134.946 176.822Z" fill="#080B09"/>
<path d="M140.714 174.511C141.134 174.347 141.27 173.694 141.017 173.054C140.766 172.414 140.221 172.029 139.801 172.193C139.382 172.359 139.246 173.011 139.498 173.651C139.75 174.291 140.294 174.677 140.714 174.511Z" fill="#080B09"/>
<path d="M138.599 175.604C138.599 175.604 138.086 177.154 139.164 177.003C140.188 176.823 140.882 177.329 139.988 178.367" fill="#E56441"/>
<path d="M138.599 175.604C138.599 175.604 138.086 177.154 139.164 177.003C140.188 176.823 140.882 177.329 139.988 178.367" stroke="#E56441" stroke-width="0.94666" stroke-linecap="round"/>
<path d="M140.038 179.738L140.043 179.737L140.048 179.735C140.063 179.73 140.079 179.73 140.094 179.734C140.109 179.737 140.123 179.745 140.134 179.756C140.146 179.766 140.154 179.78 140.158 179.795C140.162 179.81 140.163 179.826 140.159 179.841L140.155 179.854L140.154 179.867C140.088 180.545 139.919 180.949 139.714 181.175C139.516 181.394 139.267 181.467 138.986 181.446C138.696 181.423 138.379 181.302 138.071 181.134C137.767 180.969 137.484 180.766 137.266 180.592C137.251 180.578 137.24 180.561 137.234 180.541C137.228 180.521 137.227 180.499 137.232 180.479C137.237 180.458 137.248 180.439 137.263 180.424C137.278 180.409 137.297 180.398 137.318 180.393L137.32 180.393C138.153 180.182 139.409 179.886 140.038 179.738Z" fill="#E56441" stroke="#E56441"/>
<path d="M131.292 174.112L131.371 174.222C131.472 174.393 131.637 174.518 131.829 174.568C132.021 174.619 132.226 174.591 132.398 174.491L135.309 172.699C135.453 172.618 135.562 172.486 135.614 172.328C135.665 172.171 135.656 172 135.587 171.85C135.549 171.755 135.492 171.67 135.419 171.6C135.346 171.529 135.259 171.475 135.163 171.44C135.068 171.406 134.966 171.392 134.865 171.4C134.764 171.408 134.665 171.437 134.576 171.486L131.587 173.168C131.504 173.209 131.431 173.267 131.371 173.337C131.311 173.408 131.266 173.489 131.239 173.577C131.212 173.665 131.202 173.758 131.211 173.85C131.22 173.941 131.248 174.031 131.292 174.112Z" fill="#080B09"/>
<path d="M141.347 169.516L137.932 169.832C137.83 169.842 137.733 169.874 137.645 169.925C137.557 169.976 137.481 170.046 137.422 170.128C137.363 170.211 137.323 170.305 137.303 170.404C137.283 170.504 137.284 170.607 137.307 170.705C137.336 170.868 137.426 171.014 137.558 171.114C137.69 171.215 137.854 171.261 138.019 171.246L141.433 171.065C141.631 171.049 141.815 170.956 141.945 170.805C142.074 170.654 142.139 170.459 142.124 170.26L142.127 170.125C142.117 170.033 142.089 169.944 142.044 169.863C142 169.782 141.939 169.712 141.866 169.655C141.794 169.598 141.71 169.556 141.621 169.532C141.532 169.508 141.439 169.503 141.347 169.516Z" fill="#080B09"/>
<path d="M135.092 167.483C135.092 167.483 133.387 170.725 130.294 171.686C127.201 172.648 128.891 177.527 128.891 177.527C128.891 177.527 126.77 175.418 124.332 176.606C121.894 177.792 123.745 182.451 127.113 182.51L126.197 187.752C126.197 187.752 124.491 185.629 122.697 184.493C120.903 183.357 114.458 178.947 117.305 173.139C117.305 173.139 115.077 164.983 121.187 160.754C127.296 156.526 132.584 158.122 132.584 158.122C132.584 158.122 134.041 155.813 137.417 156.284C140.793 156.756 141.571 162.84 140.453 165.041C139.335 167.241 137.514 168.176 135.092 167.483Z" fill="#93523E"/>
<path d="M109.639 199.99C113.935 196.074 115.204 198.477 116.446 198.786C116.446 198.786 120.585 200.257 119.677 203.81C118.717 207.569 108.401 231.999 108.401 231.999L95.6265 228.222L96.5665 225.512L98.9986 218.495L101.596 210.992L101.865 210.092L105.019 200.179C105.019 200.179 107.4 202.09 109.639 199.99Z" fill="#5661AE"/>
<path d="M118.147 206.768C120.854 203.608 120.485 198.854 117.323 196.149C114.162 193.444 109.405 193.813 106.699 196.972C103.992 200.132 104.361 204.886 107.522 207.591C110.684 210.296 115.441 209.928 118.147 206.768Z" fill="#5661AE"/>
<path d="M107.136 225.998L130.853 249.225C130.991 249.371 131.07 249.564 131.075 249.764C131.079 249.965 131.01 250.161 130.878 250.314L126.773 255.035C126.573 255.259 126.298 255.401 126 255.433C125.702 255.466 125.403 255.386 125.16 255.211L97.9412 235.458L107.136 225.998Z" fill="#5661AE"/>
<path d="M102.003 236.878C105.691 236.878 108.681 233.891 108.681 230.205C108.681 226.519 105.691 223.532 102.003 223.532C98.3157 223.532 95.3262 226.519 95.3262 230.205C95.3262 233.891 98.3157 236.878 102.003 236.878Z" fill="#5661AE"/>
<path d="M140.589 221.524L127.717 257.163H101.837C101.837 256.075 102.27 255.031 103.04 254.262C103.81 253.492 104.854 253.06 105.943 253.06H124.666L135.781 221.524H140.589Z" fill="white"/>
<path d="M140.589 221.524H175.312L161.883 257.163H127.717L140.589 221.524Z" fill="url(#paint3_linear_413_16162)"/>
<path d="M189.073 105.298C189.073 105.298 194.859 104.08 196.694 106.892C198.529 109.704 200.364 114.987 204.524 114.302C208.683 113.617 211.864 99.8004 216.023 99.9229C220.183 100.045 218.348 109.093 222.874 109.215C227.401 109.337 226.3 104.202 229.97 104.202C233.64 104.202 232.417 115.206 237.188 115.328C241.959 115.451 241.47 101.146 248.688 101.39" stroke="white" stroke-width="5" stroke-miterlimit="10" stroke-linecap="round"/>
<path d="M172.184 103.397C175.131 96.1638 172.294 88.1741 165.848 85.5515C159.402 82.9289 151.788 86.6665 148.842 93.8997C145.895 101.133 148.732 109.123 155.178 111.745C161.624 114.368 169.238 110.63 172.184 103.397Z" stroke="#FF967C" stroke-width="16.5208" stroke-miterlimit="10" stroke-linecap="round"/>
<path d="M166.515 110.396C163.114 112.638 158.946 113.278 155.178 111.745C148.732 109.123 145.895 101.133 148.842 93.8997C151.788 86.6665 159.402 82.9289 165.848 85.5515" stroke="white" stroke-width="16.5208" stroke-miterlimit="10" stroke-linecap="round"/>
<path d="M193.422 84.7131H218.88" stroke="white" stroke-width="10" stroke-miterlimit="10" stroke-linecap="round"/>
<path opacity="0.6" d="M192.216 91.7317H202.573" stroke="white" stroke-width="10" stroke-miterlimit="10" stroke-linecap="round"/>
<path d="M386.165 259.154C386.092 259.162 386.059 259.203 386.098 259.235C386.065 259.276 386.065 259.276 386.075 259.349C385.92 259.854 385.81 260.371 385.747 260.895L392.028 265.94L392.723 265.159C392.723 265.159 390.405 262.293 389.537 261.46C389.162 261.092 388.828 260.757 388.493 260.422C388.202 260.12 387.94 259.777 387.688 259.508C387.337 259.026 386.32 259.211 386.31 259.138C386.271 259.105 386.165 259.154 386.165 259.154Z" fill="#233B62"/>
<path d="M338.674 215.319L344.739 221.193L378.649 253.921L379.268 254.484L379.537 254.901L379.576 254.933L384.379 262.207L384.916 263.039L385.095 263.316L388.344 268.271L385.668 269.602L384.893 269.983L383.8 270.511L382.074 271.404L382.044 271.444L380.212 272.385L380.123 272.247L375.949 264.274C375.141 262.734 374.005 261.388 372.623 260.33L335.749 232.119L328.74 226.756L338.674 215.319Z" fill="#FFCCB3"/>
<path d="M383.916 255.204C382.289 254.449 380.464 253.775 378.682 253.88C379.755 254.821 380.245 256.495 380.958 257.716C382.418 260.228 386.165 264.897 384.25 268.865C383.174 271.095 380.166 272.279 380.123 272.246C379.619 274.536 377.125 283.857 382.1 278.454C384.88 275.437 387.636 272.214 389.02 269.014C389.59 267.703 388.388 266.394 387.798 265.287C387.043 263.611 385.916 261.392 386.059 259.537L386.089 259.496C386.171 259.368 392.614 265.132 392.724 265.159C392.946 264.801 393.462 264.077 393.462 264.077C393.462 264.077 384.224 255.319 383.916 255.204Z" fill="#1C85E8"/>
<path d="M314.529 285.693C314.471 285.647 314.419 285.653 314.425 285.705C314.373 285.711 314.373 285.711 314.328 285.769C313.864 286.022 313.424 286.316 313.012 286.646L313.972 294.643L315.016 294.57C315.016 294.57 315.364 290.901 315.325 289.697C315.315 289.173 315.31 288.7 315.306 288.227C315.308 287.807 315.362 287.38 315.371 287.011C315.458 286.422 314.599 285.842 314.645 285.784C314.639 285.732 314.529 285.693 314.529 285.693Z" fill="#233B62"/>
<path d="M311.254 221.168L311.478 229.604L312.818 276.699L312.866 277.534L312.766 278.019L312.772 278.071L311.117 286.627L310.918 287.597L310.851 287.921L309.709 293.734L306.863 292.814L306.042 292.545L304.891 292.157L303.035 291.591L302.983 291.597L301.017 290.992L301.05 290.83L303.645 282.214C304.143 280.547 304.273 278.792 304.026 277.07L297.408 231.133L296.149 222.4L311.254 221.168Z" fill="#FFCCB3"/>
<path d="M315.684 281.296C315.05 279.621 314.218 277.864 312.87 276.693C312.98 278.117 312.158 279.656 311.812 281.025C311.099 283.842 310.51 289.799 306.365 291.297C304.036 292.139 301.056 290.882 301.05 290.83C299.088 292.115 290.782 297.033 298.119 296.649C302.216 296.434 306.442 296.056 309.671 294.738C310.995 294.197 311.052 292.422 311.405 291.219C312.038 289.493 312.784 287.118 314.184 285.892L314.236 285.885C314.385 285.851 314.956 294.474 315.016 294.57C315.424 294.469 316.3 294.311 316.3 294.311C316.3 294.311 315.825 281.595 315.684 281.296Z" fill="#1C85E8"/>
<path d="M302.118 157.873L290.13 208.464L290.109 212.056L299.856 271.962L315.377 270.283L310.874 213.069L323.222 183.218L320.726 158.738L302.118 157.873Z" fill="#1F2D49"/>
<path d="M300.44 220.753C306.229 220.753 310.922 216.063 310.922 210.277C310.922 204.491 306.229 199.801 300.44 199.801C294.651 199.801 289.958 204.491 289.958 210.277C289.958 216.063 294.651 220.753 300.44 220.753Z" fill="#1F2D49"/>
<path d="M314.809 203.559L311.852 178.562L310.874 213.069L314.809 203.559Z" fill="#0D1B33"/>
<path d="M334.476 157.715C334.476 157.715 340.065 167.099 340.137 174.957C340.25 186.752 335.994 207.901 335.994 207.901L373.156 245.442L364.309 258.699C364.309 258.699 332.598 232.403 319.181 219.913L316.176 213.832L311.852 178.562L318.46 157.715H334.476Z" fill="#1F2D49"/>
<path d="M302.118 157.873L334.669 158.207L337.832 164.749L301.568 160.194L302.118 157.873Z" fill="#0D1B33"/>
<path d="M326.564 222.953C332.353 222.953 337.047 218.263 337.047 212.477C337.047 206.692 332.353 202.001 326.564 202.001C320.775 202.001 316.082 206.692 316.082 212.477C316.082 218.263 320.775 222.953 326.564 222.953Z" fill="#1F2D49"/>
<path d="M298.318 88.3511C298.318 88.3511 298.755 93.214 297.471 97.8885C296.187 102.563 286.466 112.462 295.087 120.527C303.708 128.593 314.254 106.962 314.254 106.962L310.952 96.9718L299.536 85.1008L298.318 88.3511Z" fill="#1F2D49"/>
<path d="M324.62 89.4863C324.62 89.4863 327.207 92.771 333.102 95.4559C338.885 98.0908 345.113 102.422 343.831 111.862C342.546 121.302 325.447 113.97 320.424 108.562C315.4 103.155 316.092 93.5 316.092 93.5L324.62 89.4863Z" fill="#1F2D49"/>
<path d="M311.396 107.176C311.396 107.176 304.834 109.77 303.832 110.571C302.83 111.372 301.879 117.91 300.176 121.013C298.473 124.117 295.981 129.846 299.62 135.109C303.259 140.371 302.872 144.549 302.872 144.549L302.098 157.75L333.46 158.328C333.738 158.336 334.013 158.286 334.268 158.181C334.523 158.076 334.751 157.917 334.944 157.716C335.132 157.515 335.275 157.276 335.368 157.016C335.457 156.755 335.49 156.477 335.467 156.202C335.119 152.354 333.526 146.949 333.4 140.82C333.231 132.515 333.105 104.763 333.105 104.763L319.442 104.334C316.69 104.809 311.396 107.176 311.396 107.176Z" fill="#E02E2E"/>
<path d="M327.727 116.107C327.727 116.107 323.156 120.272 322.887 123.362C322.619 126.453 321.997 135.068 316.123 135.928C308.923 136.981 307.039 138.007 310.376 138.813C313.714 139.619 321.289 138.313 321.289 141.768C321.289 144.228 324.232 146.068 325.711 144.724C327.189 143.381 338.968 122.959 327.727 116.107Z" fill="#FF967C"/>
<path d="M272.603 119.598L270.125 116.429C269.607 115.687 268.917 115.08 268.114 114.661C266.895 114.051 265.026 112.912 264.376 111.775C263.3 109.967 259.057 105.083 262.737 101.286C264.1 99.8855 263.759 100.217 266.482 100.259C269.206 100.301 269.624 103.125 270.984 104.973C270.984 104.973 271.29 102.841 272.794 101.867C274.299 100.893 273.3 106.843 274.458 109.098C275.615 111.354 274.68 112.206 277.422 116.168L272.603 119.598Z" fill="#FFCCB3"/>
<path d="M266.068 100.584L268.281 105.602" stroke="#E56441" stroke-width="0.94666" stroke-linecap="round"/>
<path d="M263.182 101.477L266.248 106.82" stroke="#E56441" stroke-width="0.94666" stroke-linecap="round"/>
<path d="M261.371 104.99L263.788 108.179" stroke="#E56441" stroke-width="0.94666" stroke-linecap="round"/>
<path d="M270.415 106.111C270.415 106.111 269.479 108.791 269.641 110.904L270.415 106.111Z" fill="#E56441"/>
<path d="M270.415 106.111C270.415 106.111 269.479 108.791 269.641 110.904" stroke="#E56441" stroke-width="0.94666" stroke-linecap="round"/>
<path d="M305.426 109.708C302.882 110.589 299.336 112.377 298.376 114.371L289.897 133.675L275.776 112.232L270.429 117.861L283.616 145.12C286.026 151.114 292.148 153.367 296.582 146.906L303.667 135.785L305.426 109.708Z" fill="#E02E2E"/>
<path d="M301.81 126.326C301.81 126.326 301.046 125.008 301.046 131.887L296.582 146.906L303.666 135.785C309.35 128.148 304.86 126.108 301.81 126.326Z" fill="#FF967C"/>
<path d="M317.355 117.217L293.933 126.541C293.205 126.831 292.851 127.656 293.14 128.383L304.863 157.796C305.153 158.523 305.978 158.878 306.706 158.589L330.128 149.265C330.856 148.975 331.21 148.151 330.92 147.423L319.197 118.01C318.908 117.282 318.083 116.928 317.355 117.217Z" fill="#1C85E8"/>
<path d="M297.507 129.308L307.165 125.463" stroke="white" stroke-width="4" stroke-miterlimit="10" stroke-linecap="round"/>
<path d="M298.965 132.764L303.368 131.011" stroke="white" stroke-width="4" stroke-miterlimit="10" stroke-linecap="round"/>
<path d="M310.565 100.261L310.934 110.58C310.934 110.58 310.429 112.839 312.749 112.588C315.07 112.338 318.194 110.512 319.95 108.506C321.705 106.501 321.586 106.34 320.833 105.024C320.08 103.708 316.547 93.6763 316.547 93.6763L310.565 100.261Z" fill="#FFCCB3"/>
<path d="M310.618 101.126L314.896 98.4033C314.896 98.4033 313.001 106.718 310.934 110.58L310.618 101.126Z" fill="#FCBA9F"/>
<path d="M299.082 84.8192C299.082 84.8192 299.014 95.0882 303.447 100.256C306.338 103.626 309.379 103.179 314.452 97.631C319.104 92.5437 319.756 89.8923 319.756 89.8923L316.544 79.8176C316.544 79.8176 299.604 75.4735 299.082 84.8192Z" fill="#FFCCB3"/>
<path d="M303.493 82.4368C303.493 82.4368 305.35 86.9435 308.799 88.2028C312.247 89.4621 313.15 91.804 313.15 91.804C313.15 91.804 313.811 87.9509 316.521 88.0909C319.232 88.231 318.681 93.013 316.999 94.6008C316.999 94.6008 319.022 98.352 320.738 101.126L328.253 93.6722C328.253 93.6722 324.381 89.1986 323.53 85.5991C322.679 81.9995 319.923 72.3632 309.419 73.0014C297.086 73.7506 297.794 83.7667 298.318 89.3297C298.318 89.3297 302.186 87.8476 303.493 82.4368Z" fill="#1F2D49"/>
<path d="M304.829 97.0807L307.826 95.6108C307.829 95.6277 307.832 95.6459 307.834 95.6648C307.855 95.8221 307.864 96.0382 307.821 96.2756C307.737 96.7401 307.45 97.3039 306.598 97.67C306.052 97.8471 305.585 97.6723 305.243 97.4399C305.071 97.3231 304.935 97.1939 304.841 97.0936C304.837 97.0893 304.833 97.085 304.829 97.0807Z" fill="#E56441" stroke="#E56441"/>
<path d="M301.562 92.9104C301.941 92.8167 302.137 92.2887 301.999 91.7305C301.861 91.1723 301.442 90.7956 301.063 90.8893C300.684 90.9827 300.489 91.511 300.627 92.0692C300.765 92.627 301.184 93.0037 301.562 92.9104Z" fill="#080B09"/>
<path d="M307.18 91.609C307.559 91.5157 307.755 90.9873 307.617 90.4291C307.479 89.8713 307.06 89.4946 306.681 89.5879C306.302 89.6816 306.107 90.2097 306.245 90.7678C306.382 91.326 306.801 91.7027 307.18 91.609Z" fill="#080B09"/>
<path d="M299.383 89.9011L302.242 89.2453C302.29 89.2301 302.33 89.198 302.356 89.1552C302.382 89.1122 302.391 89.0616 302.383 89.0122C302.351 88.9285 302.303 88.8517 302.24 88.7868C302.178 88.7222 302.103 88.6706 302.021 88.6355C301.938 88.6004 301.849 88.5825 301.759 88.5825C301.669 88.5829 301.58 88.6014 301.498 88.6368L299.256 89.5859C299.069 89.632 299.15 89.9587 299.383 89.9011Z" fill="#080B09"/>
<path d="M308.982 87.3434L305.259 88.5097C305.234 88.3935 305.234 88.2733 305.258 88.1571C305.283 88.0409 305.331 87.931 305.401 87.8343C305.47 87.738 305.559 87.6572 305.662 87.5973C305.764 87.5374 305.878 87.4996 305.997 87.4864L308.971 87.0987C309.065 87.0759 309.123 87.309 308.982 87.3434Z" fill="#080B09"/>
<path d="M303.568 91.0444L303.164 94.0574L304.229 94.5712" fill="#E56441"/>
<path d="M303.568 91.0444L303.164 94.0574L304.229 94.5712" stroke="#E56441" stroke-width="0.94666" stroke-linecap="round"/>
<path d="M306.402 143.872L297.167 146.52L296.039 152.208L298.139 158.502C298.139 158.502 299.617 157.509 299.309 155.192C299.001 152.875 306.804 152.941 308.234 150.029" fill="#FFCCB3"/>
<path d="M327.497 112.526C327.497 112.526 327.436 104.709 333.701 104.708C337.905 104.707 339.916 106.676 340.452 112.822C340.826 117.119 341.098 140.694 341.098 140.694C341.098 140.694 342.155 151.454 333.022 151.655L306.653 150.865L306.058 143.502L329.045 141.213L327.497 112.526Z" fill="#E02E2E"/>
<path d="M308.429 111.549C308.429 111.549 310.806 110.872 310.421 108.538C310.045 106.241 310.031 104.247 310.785 104.524C310.785 104.524 311.45 105.665 315.589 104.397C319.7 103.177 319.442 101.767 319.442 101.767C319.442 101.767 320.024 101.252 320.458 102.574C320.892 103.897 321.994 107.558 324.322 107.295L324.951 114.119L312.568 118.193C312.541 118.24 306.818 112.699 308.429 111.549Z" fill="#E02E2E"/>
<path d="M207.428 247.739H215.219" stroke="white" stroke-width="5" stroke-miterlimit="10" stroke-linecap="round"/>
<path opacity="0.5" d="M209.014 251.118H212.91" stroke="white" stroke-width="5" stroke-miterlimit="10" stroke-linecap="round"/>
<path d="M202.239 240.992L208.217 236.826L212.428 239.629L218.033 235.572" stroke="white" stroke-width="6.50414" stroke-linecap="round" stroke-linejoin="round"/>
<path d="M213.724 233.804H219.686V239.7" stroke="white" stroke-width="6.50414" stroke-linecap="round" stroke-linejoin="round"/>
<path d="M284.316 50.7302H261.21C260.927 50.7411 260.646 50.6858 260.389 50.5687C260.132 50.4518 259.905 50.276 259.728 50.0562C259.551 49.836 259.427 49.5778 259.368 49.3014C259.308 49.0253 259.314 48.7392 259.385 48.4655L262.936 30.2178C263.073 29.5942 263.413 29.0336 263.902 28.6238C264.392 28.214 265.004 27.9782 265.642 27.9533H288.749C289.031 27.9424 289.312 27.9976 289.569 28.1147C289.827 28.2317 290.053 28.4072 290.23 28.6272C290.408 28.8473 290.531 29.1057 290.591 29.3819C290.65 29.658 290.645 29.9443 290.574 30.2178L287.022 48.4655C286.886 49.0892 286.546 49.6496 286.056 50.0595C285.566 50.4693 284.955 50.7051 284.316 50.7302Z" fill="#1C85E8"/>
<path d="M268.467 32.8884L283.853 32.8914C283.963 32.8866 284.073 32.9074 284.174 32.9522C284.275 32.9969 284.364 33.0645 284.435 33.1493C284.505 33.2343 284.555 33.3347 284.58 33.4419C284.606 33.5495 284.606 33.6611 284.58 33.7687L284.37 34.9197C284.335 35.0869 284.261 35.2438 284.155 35.3779C284.049 35.5123 283.913 35.6203 283.759 35.6931L275.33 39.7475C275.199 39.8164 275.054 39.8521 274.906 39.8511C274.759 39.8505 274.614 39.8131 274.484 39.7425L267.55 35.5653C267.423 35.4862 267.325 35.3696 267.267 35.2319C267.21 35.0939 267.197 34.9419 267.23 34.7963L267.419 33.7654C267.47 33.523 267.601 33.3049 267.791 33.146C267.981 32.9869 268.219 32.8962 268.467 32.8884Z" fill="white"/>
<path d="M267.703 37.0799L274.337 41.2386C274.427 41.2893 274.529 41.3161 274.632 41.3161C274.736 41.3161 274.837 41.2893 274.927 41.2386L283.082 37.0829C283.521 36.8594 283.963 37.1428 283.88 37.5947L282.668 44.2194C282.576 44.6548 282.34 45.0467 281.998 45.3324C281.657 45.6181 281.229 45.781 280.784 45.7949L266.814 45.7923C266.615 45.8009 266.418 45.7635 266.236 45.683C266.055 45.6026 265.895 45.4814 265.768 45.3288C265.641 45.1758 265.552 44.9961 265.507 44.8031C265.461 44.6101 265.461 44.4091 265.506 44.2161L266.718 37.5914C266.737 37.4861 266.78 37.3864 266.844 37.3C266.907 37.2136 266.99 37.1431 267.085 37.0938C267.18 37.0445 267.285 37.0173 267.393 37.015C267.5 37.0124 267.606 37.0345 267.703 37.0799Z" fill="white"/>
<path d="M289.547 32.7326C292.188 32.7326 294.329 30.5928 294.329 27.9532C294.329 25.3136 292.188 23.1738 289.547 23.1738C286.906 23.1738 284.765 25.3136 284.765 27.9532C284.765 30.5928 286.906 32.7326 289.547 32.7326Z" fill="#FF967C"/>
<path d="M289.882 133.668L293.847 139.556L291.733 129.497L289.882 133.668Z" fill="#FF967C"/>
</g>
</g>
<defs>
<linearGradient id="paint0_linear_413_16162" x1="221.744" y1="80.4222" x2="227.786" y2="183.064" gradientUnits="userSpaceOnUse">
<stop stop-color="white"/>
<stop offset="1" stop-color="#94B9FF"/>
</linearGradient>
<linearGradient id="paint1_linear_413_16162" x1="206.259" y1="110.738" x2="231.548" y2="288.106" gradientUnits="userSpaceOnUse">
<stop stop-color="white"/>
<stop offset="1" stop-color="#94B9FF"/>
</linearGradient>
<linearGradient id="paint2_linear_413_16162" x1="271.791" y1="110.738" x2="297.079" y2="288.106" gradientUnits="userSpaceOnUse">
<stop stop-color="white"/>
<stop offset="1" stop-color="#94B9FF"/>
</linearGradient>
<linearGradient id="paint3_linear_413_16162" x1="150.33" y1="221.439" x2="156.496" y2="297.389" gradientUnits="userSpaceOnUse">
<stop stop-color="white"/>
<stop offset="1" stop-color="#94B9FF"/>
</linearGradient>
<clipPath id="clip0_413_16162">
<rect width="477" height="339" fill="white"/>
</clipPath>
</defs>
</svg>
