<svg width="100" height="61" viewBox="0 0 100 61" fill="none" xmlns="http://www.w3.org/2000/svg">
<g clip-path="url(#clip0_624_16592)">
<path d="M64.5055 60.6286V41.8626L98.6813 21.6531L98.9011 39.2848C98.9011 39.2848 99.1209 39.9035 96.3736 41.5533L64.5055 60.6286Z" fill="#19A4DD"/>
<path d="M64.2857 0V17.838L85.9341 30.5205L98.6813 21.653C98.6813 21.653 98.6813 20.0033 95.6044 18.0442L64.2857 0Z" fill="#F15E25"/>
<path d="M30.4396 43.8217H23.8462V20.1064H30.4396V43.8217Z" fill="#020303"/>
<path d="M51.4286 20.1064V29.5925H41.978V20.1064H35.3846V43.8217H41.978V33.0983H51.4286V43.8217H58.022V20.1064H51.4286Z" fill="#020303"/>
<path d="M9.67033 43.8216C7.14286 43.8216 4.94506 42.9967 3.40659 41.4501C0.10989 38.2537 2.46626e-07 32.892 0.10989 31.6547C-0.32967 20.8281 9.67033 20.2095 9.78022 20.2095H9.89011H19.6703V24.3339H9.89011C8.9011 24.437 4.17583 25.1587 4.39561 31.5515V31.6547V31.7578C4.28572 33.5106 4.72528 36.8101 6.48352 38.563C7.25275 39.3879 8.35165 39.6972 9.78022 39.6972H20.5495V43.8216H9.78022C9.78022 43.8216 9.67033 43.8216 9.67033 43.8216Z" fill="#020303"/>
</g>
<defs>
<clipPath id="clip0_624_16592">
<rect width="100" height="60.8347" fill="white"/>
</clipPath>
</defs>
</svg>
