<svg width="100" height="36" viewBox="0 0 100 36" fill="none" xmlns="http://www.w3.org/2000/svg">
<path fill-rule="evenodd" clip-rule="evenodd" d="M0.187322 26.0843L0.187337 26.0843L0.187341 26.0842C0.279729 25.5592 0.369248 25.0505 0.472155 24.5418C0.907992 22.2406 1.34685 19.9425 1.78572 17.6444C2.22458 15.3463 2.66344 13.0482 3.09928 10.747C3.15981 10.4556 3.24455 10.2613 3.53511 10.2127C5.79904 9.8727 8.07507 9.62983 10.339 10.2006C12.3124 10.6863 13.6925 12.0828 13.9225 13.7221C14.3947 16.9886 12.494 19.5994 9.67313 20.5345C8.18403 21.0202 6.67071 21.1416 5.13318 20.9959C4.76998 20.9595 4.66102 21.0566 4.60049 21.4088C4.27361 23.1939 3.93463 24.9668 3.58354 26.7397C3.55932 26.8854 3.42615 27.1161 3.34141 27.1161C2.51864 27.1343 1.70938 27.1321 0.868236 27.1298C0.583077 27.129 0.294255 27.1283 0 27.1283C0.0665772 26.7705 0.12755 26.424 0.187322 26.0843ZM5.89501 18.118L5.89507 18.118H5.89508H5.89509H5.8951H5.89511H5.89512C6.36865 18.1309 6.81582 18.143 7.2518 18.0935C8.51089 17.96 9.51573 17.3892 10.0847 16.187C10.7264 14.827 10.2663 13.3819 9.05568 12.9569C8.19612 12.6534 7.31234 12.7141 6.42856 12.8355C6.3196 12.8476 6.17432 13.0176 6.15011 13.1269C5.98089 14.0164 5.81166 14.9096 5.63609 15.8363L5.63571 15.8383C5.49738 16.5684 5.35511 17.3194 5.2058 18.1057C5.44246 18.1057 5.67167 18.1119 5.89501 18.118ZM21.4649 24.7965C21.2733 24.9963 21.0939 25.1974 20.9185 25.3939C20.5397 25.8183 20.1799 26.2214 19.7579 26.5451C18.4867 27.5288 17.0339 27.7473 15.569 27.0673C14.1162 26.3994 13.523 25.1001 13.4625 23.57C13.3293 20.3521 14.4552 17.6927 17.155 15.8469C18.8499 14.6812 20.799 14.329 22.8208 14.4383C23.4896 14.4778 24.1533 14.5942 24.8185 14.7108C25.1768 14.7737 25.5356 14.8366 25.8959 14.8876C26.3075 14.9483 26.3681 15.1791 26.2954 15.5312C26.1984 16.0384 26.1002 16.5451 26.0022 17.0515L26.002 17.0523L26.0019 17.0528L26.0018 17.0534C25.6351 18.9467 25.2693 20.8357 24.9637 22.7322C24.7885 23.8178 24.7185 24.9299 24.6493 26.0309L24.6492 26.0326L24.6492 26.0327L24.6492 26.0328L24.6492 26.0329C24.6372 26.2243 24.6252 26.4153 24.6126 26.6059C24.5884 26.9944 24.4915 27.1523 24.092 27.1402C23.3414 27.1159 22.5908 27.1159 21.8402 27.1402C21.4528 27.1523 21.3196 27.0066 21.3559 26.6302C21.3905 26.2141 21.4127 25.7857 21.4358 25.3405C21.4451 25.162 21.4545 24.9807 21.4649 24.7965ZM22.3124 17.292C21.1381 16.9642 20.1574 17.1949 19.3342 17.8871C17.7845 19.1985 17.0824 20.8986 17.2155 22.9265C17.2519 23.5458 17.494 24.1408 18.1477 24.408C18.8015 24.6751 19.3947 24.4808 19.9032 24.0437C20.2058 23.7765 20.4964 23.473 20.7143 23.1329C21.5682 21.8256 21.8015 20.351 22.0384 18.8531C22.1206 18.3335 22.2033 17.8112 22.3124 17.292ZM39.4674 24.0926C40.1332 26.2298 41.9613 27.4199 45.1695 27.4199C47.3729 27.3591 49.5642 26.1084 50.9323 23.534C51.6587 22.1497 51.925 20.6682 51.8281 19.1139C51.7434 17.6203 51.1502 16.3574 49.9395 15.4588C48.6683 14.5116 47.2156 14.3173 45.6659 14.4873C40.4843 15.0702 38.3657 20.5711 39.4674 24.0926ZM42.9151 22.3095C42.9164 22.2474 42.9177 22.1858 42.9177 22.1255C42.954 20.7291 43.293 19.4297 44.1284 18.2761C44.5037 17.7661 44.9758 17.3775 45.6054 17.2318C46.8887 16.9404 47.9419 17.6811 48.063 19.0776C48.2083 20.7898 47.7967 22.3684 46.7192 23.7406C46.3076 24.2506 45.787 24.6028 45.1211 24.6635C43.9226 24.7728 43.0146 23.9592 42.9177 22.6841C42.9096 22.5624 42.9124 22.4352 42.9151 22.3098V22.3097V22.3096V22.3095V22.3095ZM54.7095 14.7424H57.7846C57.7362 15.3981 57.6877 16.0296 57.6272 16.6732C57.7393 16.5684 57.8478 16.465 57.9541 16.3635C58.1806 16.1473 58.3975 15.9404 58.6199 15.7503C59.8185 14.706 61.1865 14.2445 62.7725 14.4995C64.08 14.7181 64.988 15.6774 65.1333 17.0253C65.2911 18.4279 65.0289 19.7883 64.7671 21.1458L64.7661 21.1513L64.7652 21.1557C64.7466 21.2523 64.728 21.3489 64.7095 21.4455C64.6038 21.9945 64.4993 22.5436 64.3949 23.0922L64.3945 23.0942L64.394 23.0969L64.3933 23.1004C64.1633 24.3086 63.9337 25.515 63.6926 26.7156C63.6563 26.8735 63.4747 27.1042 63.3536 27.1164C62.3125 27.1407 61.2714 27.1285 60.2303 27.1164H60.2301C60.1952 27.1164 60.1603 27.0974 60.1073 27.0687C60.0867 27.0575 60.0635 27.0449 60.0364 27.0314C60.2301 26.0235 60.4238 25.0034 60.6054 23.9834C60.8839 22.4169 61.1502 20.8626 61.3923 19.2961C61.4408 19.029 61.4166 18.7497 61.3802 18.4825C61.2834 17.5475 60.5933 17.1225 59.6974 17.4018C58.8258 17.6811 58.3052 18.3611 57.8814 19.114C57.2519 20.219 57.034 21.4455 56.8161 22.6719C56.7615 22.9759 56.7075 23.2792 56.6536 23.5822L56.6534 23.583L56.6533 23.5834L56.6533 23.5838C56.4682 24.6239 56.2837 25.6601 56.0776 26.7035C56.0412 26.8614 55.8596 27.1042 55.7386 27.1164C54.8896 27.1454 54.0329 27.1436 53.1196 27.1417C52.8868 27.1412 52.6503 27.1407 52.4093 27.1407C53.2083 22.9634 53.9589 18.8711 54.7095 14.7424ZM72.1671 24.5902C70.8838 24.4323 70.0242 23.5337 70.109 22.2708C70.3767 22.2708 70.643 22.2749 70.908 22.279H70.9081C71.434 22.2871 71.9546 22.2951 72.4698 22.2708C73.7167 22.198 74.9395 21.9915 76.0775 21.4208C77.5303 20.6922 78.2083 19.49 78.0993 17.9236C77.9903 16.3328 77.1308 15.1792 75.5932 14.7177C73.293 14.0256 71.1744 14.5113 69.3705 16.0535C67.1792 17.9236 66.3559 20.4008 66.6707 23.2302C66.8886 25.2338 67.9782 26.6667 69.9637 27.1767C72.0945 27.7232 74.1889 27.4317 76.2107 26.606C76.356 26.5453 76.5255 26.3145 76.5133 26.1688C76.4843 25.5762 76.4242 24.9836 76.3642 24.3909C76.3492 24.2428 76.3342 24.0947 76.3196 23.9466C76.2799 23.9466 76.2503 23.9446 76.2276 23.943C76.195 23.9407 76.1765 23.9395 76.1623 23.9466L76.162 23.9467C76.0289 23.9952 75.8958 24.0438 75.7748 24.0923C74.6126 24.5416 73.4141 24.7359 72.1671 24.5902ZM74.0435 19.2109C73.305 19.5994 71.3922 19.8302 70.46 19.6359C70.6537 18.0208 72.3607 16.7579 73.8014 17.1101C74.2857 17.2315 74.6367 17.4865 74.7215 18.0087C74.8062 18.5187 74.552 18.9437 74.0435 19.2109ZM82.2035 22.3196C82.0945 23.5097 82.942 24.4204 84.2374 24.5904C85.448 24.7362 86.6103 24.554 87.7483 24.1411C87.8531 24.1017 87.9544 24.0623 88.0656 24.019C88.1599 23.9823 88.2612 23.9428 88.3778 23.8983C88.4015 24.1555 88.4277 24.4076 88.4536 24.6563C88.5072 25.1704 88.5592 25.6698 88.5836 26.1691C88.5957 26.3148 88.4263 26.5455 88.2931 26.6062C86.235 27.4562 84.1163 27.7477 81.9493 27.1527C80.0001 26.6184 78.9832 25.1976 78.741 23.2547C78.4384 20.7653 79.08 18.5188 80.8112 16.673C82.6756 14.6937 84.9638 13.9894 87.603 14.718C89.2132 15.1673 90.0727 16.333 90.1696 17.9724C90.2664 19.5753 89.5401 20.7775 88.0267 21.4818C86.5013 22.1861 84.879 22.2954 83.2326 22.3318C82.9057 22.3196 82.5667 22.3196 82.2035 22.3196ZM82.5546 19.7331C82.7748 19.7193 82.9912 19.7084 83.2044 19.6977C83.7414 19.6708 84.2589 19.6448 84.7701 19.5752C85.2544 19.5145 85.7386 19.3688 86.1745 19.1624C86.6466 18.9559 86.8766 18.5188 86.804 17.9845C86.7314 17.4745 86.3924 17.2316 85.9202 17.1102C84.4917 16.7216 82.712 18.0331 82.5546 19.7331ZM90.8353 24.5903C90.6779 25.4161 90.5327 26.2297 90.3753 27.1283C90.6178 27.1283 90.8568 27.1288 91.093 27.1292C92.0245 27.1312 92.913 27.133 93.8014 27.104C93.8862 27.104 94.0194 26.8733 94.0436 26.7275C94.1671 26.121 94.2816 25.5116 94.396 24.9022C94.607 23.7791 94.8179 22.6566 95.0847 21.5545C95.678 19.1016 96.6828 18.2515 99.0678 17.9358C99.1646 17.9237 99.322 17.8144 99.3462 17.7294C99.4982 17.0314 99.6343 16.3281 99.7755 15.5986C99.8481 15.2238 99.9219 14.8422 100 14.4507C97.6998 14.2078 96.4165 15.5436 95.3027 17.1829L95.3204 16.9473C95.3751 16.2218 95.4308 15.4835 95.4964 14.7057C95.2447 14.7057 94.9977 14.7049 94.7541 14.7042C94.0371 14.7019 93.3503 14.6997 92.6634 14.7178C92.5666 14.73 92.385 14.9486 92.3729 15.0821C92.1145 18.2032 91.5032 21.2557 90.8922 24.3061L90.8353 24.5903Z" fill="black"/>
<path fill-rule="evenodd" clip-rule="evenodd" d="M58.7818 0.0922135C58.6593 0.059768 58.5367 0.0273225 58.4141 0C58.0388 0 57.6635 0 57.264 0.0121433C57.1275 0.0395174 56.9911 0.0693599 56.8535 0.099445C56.6859 0.136089 56.5167 0.173093 56.3439 0.206435C54.4916 0.55859 52.7482 1.20218 51.0654 2.05221C47.4214 3.89798 44.1526 6.29021 41.2228 9.11958C39.2736 10.9896 37.385 12.9447 35.5569 14.9483C32.3487 18.4699 29.6005 22.3436 27.4092 26.5937C26.2833 28.7917 25.2664 31.0382 24.8063 33.479C24.7216 33.9283 24.8669 34.4504 25.0121 34.8997C25.0727 35.0819 25.4116 35.2154 25.6417 35.2883C25.7022 35.3126 25.8838 35.009 25.9685 34.839C25.9986 34.7732 26.0294 34.7057 26.0609 34.6367C26.5867 33.4849 27.2977 31.9273 27.9145 30.8962C29.222 28.7104 30.2543 27.0187 31.7192 24.9422C34.0678 21.6029 36.8121 18.3264 39.6935 15.4363C42.4174 12.7041 45.1453 10.2611 48.5715 8.41528C50.1453 7.57739 51.7555 6.75165 53.402 6.07163C56.247 4.89373 59.2131 4.09228 62.264 3.64298C62.5909 3.5944 63.0267 3.3394 63.1357 3.07224C63.2325 2.82938 63.0025 2.36793 62.7725 2.13721C61.8402 1.1779 60.7507 0.4493 59.3947 0.230722C59.1904 0.200364 58.9861 0.146289 58.7818 0.0922135ZM31.0654 16.6605C31.6465 15.0819 31.9371 13.4425 31.9734 11.7425C31.9573 11.5603 31.9438 11.3782 31.9304 11.196C31.9035 10.8317 31.8766 10.4674 31.8281 10.1031C31.5013 7.2859 30.2906 4.89367 28.3657 2.84146C28.1356 2.61074 27.8209 2.42859 27.5061 2.3193C27.1913 2.19787 26.9855 2.38002 27.0097 2.74432C27.0103 2.75201 27.0109 2.75971 27.0115 2.76742C27.0352 3.07601 27.0596 3.3956 27.1187 3.70364C27.2038 4.1889 27.2882 4.67475 27.3728 5.16092C27.6732 6.88898 27.9744 8.62119 28.3051 10.346C28.632 12.0825 28.9952 13.8068 29.3826 15.519C29.5158 16.0655 29.7337 16.6119 30.0001 17.1219C30.2059 17.5105 30.4964 17.4741 30.7628 17.1219C30.8838 16.9762 31.0049 16.8305 31.0654 16.6605Z" fill="#FC461E"/>
</svg>
