<svg width="100" height="88" viewBox="0 0 100 88" fill="none" xmlns="http://www.w3.org/2000/svg">
<path fill-rule="evenodd" clip-rule="evenodd" d="M12.0001 60.4392H4.22197C3.6897 60.4392 3.23702 60.8261 3.15402 61.3513L0.00815942 81.2967C-0.0543672 81.6904 0.250427 82.0451 0.649639 82.0451H4.36297C4.89524 82.0451 5.34792 81.6583 5.43092 81.1319L6.2794 75.7524C6.36125 75.2256 6.81504 74.8393 7.3462 74.8393H9.80847C14.9322 74.8393 17.889 72.3598 18.6617 67.4466C19.0096 65.2971 18.6764 63.6082 17.6696 62.425C16.5643 61.1266 14.6032 60.4392 12.0001 60.4392ZM12.8974 67.724C12.4722 70.515 10.3396 70.5151 8.27768 70.5151H7.10393L7.92736 65.3024C7.97625 64.9877 8.2492 64.7555 8.56768 64.7555H9.10563C10.5102 64.7555 11.8353 64.7555 12.5201 65.5561C12.928 66.034 13.0532 66.7435 12.8974 67.724ZM35.2507 67.6345H31.5259C31.2086 67.6345 30.9344 67.8666 30.8854 68.1819L30.7207 69.2235L30.4602 68.8461C29.6538 67.6756 27.8559 67.2845 26.0612 67.2845C21.9448 67.2845 18.4296 70.4019 17.7448 74.7751C17.389 76.9561 17.8948 79.0419 19.1322 80.4967C20.2675 81.8341 21.8917 82.3914 23.8238 82.3914C27.1401 82.3914 28.9796 80.2588 28.9796 80.2588L28.8133 81.2941C28.7507 81.6898 29.0554 82.0446 29.4523 82.0446H32.8075C33.3412 82.0446 33.7912 81.6577 33.8754 81.1314L35.8886 68.3829C35.9523 67.9908 35.6486 67.6345 35.2507 67.6345ZM30.0586 74.884C29.6991 77.0119 28.0101 78.4404 25.8564 78.4404C24.7749 78.4404 23.9101 78.0935 23.3554 77.4361C22.8049 76.7835 22.5954 75.854 22.7706 74.8193C23.1064 72.7093 24.8238 71.2345 26.9449 71.2345C28.0022 71.2345 28.8623 71.5856 29.4286 72.2487C29.9959 72.9187 30.2212 73.8535 30.0586 74.884ZM51.345 67.634H55.0882C55.6124 67.634 55.9182 68.2219 55.6203 68.6519L43.1713 86.6214C42.9697 86.9125 42.6376 87.0857 42.2829 87.0857H38.5444C38.0181 87.0857 37.7107 86.493 38.0155 86.062L41.8918 80.5904L37.7691 68.4914C37.6265 68.0708 37.937 67.634 38.3844 67.634H42.0623C42.5402 67.634 42.9618 67.9477 43.0997 68.405L45.2876 75.7124L50.4503 68.1082C50.6524 67.8114 50.9882 67.634 51.345 67.634Z" fill="#253B80"/>
<path fill-rule="evenodd" clip-rule="evenodd" d="M91.9275 81.297L95.1196 60.9869C95.1686 60.6716 95.4417 60.4395 95.7591 60.4385H99.3528C99.7497 60.4385 100.054 60.7943 99.9918 61.188L96.8439 81.1323C96.7617 81.6586 96.3091 82.0454 95.776 82.0454H92.5665C92.1696 82.0454 91.8649 81.6907 91.9275 81.297ZM67.4805 60.4395H59.701C59.17 60.4395 58.7173 60.8264 58.6342 61.3516L55.4884 81.297C55.4257 81.6907 55.7305 82.0454 56.1279 82.0454H60.1195C60.4905 82.0454 60.8079 81.7749 60.8658 81.4065L61.7584 75.7528C61.8405 75.2259 62.2942 74.8396 62.8253 74.8396H65.2863C70.4111 74.8396 73.3674 72.3601 74.1406 67.4469C74.4895 65.2974 74.1543 63.6085 73.1479 62.4253C72.0432 61.1269 70.0837 60.4395 67.4805 60.4395ZM68.3779 67.7243C67.9537 70.5154 65.8211 70.5154 63.7579 70.5154H62.5853L63.41 65.3027C63.4589 64.988 63.7295 64.7559 64.0489 64.7559H64.5868C65.9905 64.7559 67.3169 64.7559 68.0011 65.5564C68.4095 66.0343 68.5337 66.7438 68.3779 67.7243ZM90.7291 67.6348H87.007C86.687 67.6348 86.4154 67.8669 86.3675 68.1822L86.2027 69.2238L85.9412 68.8464C85.1348 67.6759 83.338 67.2848 81.5433 67.2848C77.4269 67.2848 73.9127 70.4022 73.2279 74.7754C72.8732 76.9565 73.3769 79.0422 74.6143 80.497C75.7516 81.8344 77.3738 82.3917 79.3059 82.3917C82.6222 82.3917 84.4612 80.2591 84.4612 80.2591L84.2954 81.2944C84.2327 81.6902 84.5375 82.0449 84.937 82.0449H88.2907C88.8217 82.0449 89.2743 81.658 89.3575 81.1317L91.3717 68.3833C91.4333 67.9911 91.1286 67.6348 90.7291 67.6348ZM85.5375 74.8843C85.1801 77.0122 83.489 78.4407 81.3348 78.4407C80.2553 78.4407 79.389 78.0938 78.8338 77.4365C78.2832 76.7838 78.0764 75.8543 78.2495 74.8196C78.5869 72.7096 80.3022 71.2348 82.4233 71.2348C83.4812 71.2348 84.3406 71.5859 84.9075 72.2491C85.477 72.9191 85.7022 73.8538 85.5375 74.8843Z" fill="#179BD7"/>
<path d="M40.7852 53.3038L41.7415 47.2301L39.6115 47.1806H29.4404L36.5088 2.36134C36.5304 2.22602 36.602 2.09987 36.7062 2.01029C36.8104 1.92071 36.9441 1.87134 37.083 1.87134H54.2331C59.9268 1.87134 63.8558 3.05613 65.9074 5.39462C66.869 6.49168 67.4816 7.63805 67.7779 8.89964C68.0884 10.2234 68.0942 11.805 67.7906 13.7339L67.7684 13.8747V15.1107L68.7306 15.6556C69.5406 16.0852 70.1837 16.577 70.6774 17.1402C71.5006 18.0782 72.0327 19.2703 72.2574 20.6836C72.4895 22.1372 72.4127 23.8668 72.0327 25.825C71.5937 28.0776 70.8843 30.0395 69.9264 31.6448C69.0448 33.124 67.9221 34.3506 66.5895 35.3016C65.3169 36.2048 63.8047 36.8906 62.0953 37.3295C60.4384 37.7606 58.55 37.9785 56.4784 37.9785H55.1437C54.1894 37.9785 53.2621 38.3221 52.5347 38.9385C51.8052 39.5674 51.3221 40.4264 51.1742 41.3664L51.0736 41.9132L49.3842 52.618L49.3073 53.0112C49.2873 53.1359 49.2526 53.198 49.2015 53.2401C49.1557 53.278 49.0899 53.3038 49.0257 53.3038H40.7852Z" fill="#253B80"/>
<path d="M69.6411 14.0181C69.5901 14.3453 69.5316 14.6799 69.4659 15.0237C67.2037 26.6358 59.4663 30.6473 49.5837 30.6473H44.552C43.3436 30.6473 42.3252 31.5248 42.1368 32.7169L39.5604 49.0556L38.831 53.6867C38.7083 54.4693 39.312 55.1751 40.1015 55.1751H49.0263C50.0831 55.1751 50.9805 54.4072 51.1468 53.3651L51.2347 52.9114L52.9152 42.2482L53.0231 41.6635C53.1874 40.6177 54.0868 39.8498 55.1437 39.8498H56.4784C65.1248 39.8498 71.8938 36.3392 73.8722 26.1805C74.6985 21.9368 74.2706 18.3934 72.0838 15.9013C71.4222 15.1498 70.6011 14.5263 69.6411 14.0181Z" fill="#179BD7"/>
<path d="M67.2743 13.0755C66.929 12.9749 66.5722 12.8835 66.2064 12.8012C65.839 12.7208 65.4621 12.6495 65.0748 12.5873C63.7179 12.3679 62.2316 12.2637 60.639 12.2637H47.1968C46.8657 12.2637 46.5515 12.3386 46.2699 12.4739C45.6499 12.7719 45.1894 13.3589 45.0778 14.0774L42.2178 32.1895L42.1357 32.7178C42.3241 31.5257 43.3426 30.6481 44.551 30.6481H49.5826C59.4653 30.6481 67.2032 26.6348 69.4648 15.0245C69.5322 14.6808 69.589 14.3462 69.6401 14.0189C69.068 13.7154 68.4479 13.4558 67.7806 13.2345C67.6164 13.1797 67.4464 13.1267 67.2743 13.0755Z" fill="#222D65"/>
<path d="M45.078 14.0768C45.1896 13.3582 45.6506 12.7713 46.2701 12.4751C46.5538 12.3397 46.8664 12.2648 47.1969 12.2648H60.6396C62.2323 12.2648 63.7186 12.369 65.0749 12.5884C65.4628 12.6506 65.8396 12.7219 66.207 12.8023C66.5728 12.8846 66.9291 12.9761 67.2749 13.0766C67.4465 13.1278 67.6165 13.1808 67.7828 13.2339C68.4502 13.4551 69.0702 13.7165 69.6423 14.0182C70.3155 9.727 69.637 6.80525 67.317 4.15955C64.7591 1.24695 60.1423 0 54.2349 0H37.0843C35.8774 0 34.8485 0.877583 34.6616 2.07154L27.5184 47.3516C27.3774 48.2474 28.0684 49.0558 28.9716 49.0558H39.5601L42.2185 32.1887L45.078 14.0768Z" fill="#253B80"/>
</svg>
