<svg width="100" height="23" viewBox="0 0 100 23" fill="none" xmlns="http://www.w3.org/2000/svg">
<path d="M100 9.89418C100 4.08546 95.9528 0 90.279 0C83.056 0 78.2148 5.24721 78.2148 12.7404C78.2148 18.5879 82.3007 22.6346 88.0714 22.6346C93.3192 22.6346 97.2308 20.0982 98.8381 16.0514H93.0094C92.2348 17.31 90.5888 18.1038 88.5749 18.1038C85.4765 18.1038 83.5401 16.0514 83.3658 13.1471H99.6708C99.8838 12.0434 100 11.0946 100 9.89418ZM83.8112 9.21649C84.334 6.54449 86.9289 4.41462 90.0659 4.41462C92.777 4.41462 94.8296 6.38959 94.8296 9.21649H83.8112Z" fill="#2E4369"/>
<path d="M62.5495 22.1117L63.5952 16.5353C66.7904 17.1743 67.2745 15.3736 68.1072 11.0364L68.5138 8.88719C69.6757 2.82676 72.0188 -0.19377 78.719 0.619451L77.6733 6.19582C74.4781 5.55686 73.9166 7.97716 73.2001 11.7335L72.7934 13.8827C71.6315 20.0206 69.211 22.9249 62.5495 22.1117Z" fill="#2E4369"/>
<path d="M54.7265 22.1318L58.6769 0.523363H63.886L59.9549 22.1318H54.7265Z" fill="#2E4369"/>
<path d="M24.8838 0.523363H29.938L31.584 16.1488L38.2067 0.523363H43.2221L44.9843 16.3037L51.3746 0.523363H56.4094L47.25 22.1318H41.518L39.659 7.26147L33.3268 22.1318H27.7885L24.8838 0.523363Z" fill="#2E4369"/>
<path d="M6.00303 6.25329L0 11.9846H10.2052L11.2702 9.4868H6.09986L9.33375 6.25329L7.45538 3.01977H16.2276L8.13314 22.1304H11.1734L20.3329 0.522019H2.63359L6.00303 6.25329Z" fill="#00B9FF"/>
</svg>
