<svg width="44" height="56" viewBox="0 0 44 56" fill="none" xmlns="http://www.w3.org/2000/svg">
<path d="M44 56L33.385 51.66C35.31 47.376 36.685 42.952 37.5375 38.444L44 56ZM10.615 51.66L0 56L6.4625 38.444C7.315 42.952 8.69 47.376 10.615 51.66ZM22 0C22 0 35.75 5.6 35.75 28C35.75 36.68 33.6875 44.1 31.1575 49.924C30.7178 50.9056 30.0089 51.737 29.1161 52.3182C28.2233 52.8994 27.1846 53.2056 26.125 53.2H17.875C16.8154 53.2056 15.7767 52.8994 14.8839 52.3182C13.9911 51.737 13.2822 50.9056 12.8425 49.924C10.34 44.1 8.25 36.68 8.25 28C8.25 5.6 22 0 22 0ZM22 28C25.025 28 27.5 25.48 27.5 22.4C27.5 19.32 25.025 16.8 22 16.8C18.975 16.8 16.5 19.32 16.5 22.4C16.5 25.48 18.975 28 22 28Z" fill="#E02E2E"/>
</svg>
