<svg width="55" height="55" viewBox="0 0 55 55" fill="none" xmlns="http://www.w3.org/2000/svg">
<path d="M27.5 0C23.8886 0 20.3127 0.711309 16.9762 2.09331C13.6398 3.47532 10.6082 5.50095 8.05456 8.05456C2.89731 13.2118 0 20.2065 0 27.5C0 34.7935 2.89731 41.7882 8.05456 46.9454C10.6082 49.499 13.6398 51.5247 16.9762 52.9067C20.3127 54.2887 23.8886 55 27.5 55C34.7935 55 41.7882 52.1027 46.9454 46.9454C52.1027 41.7882 55 34.7935 55 27.5C55 24.31 54.4225 21.1475 53.3225 18.1775L48.9225 22.5775C49.3075 24.2 49.5 25.85 49.5 27.5C49.5 33.3348 47.1822 38.9305 43.0564 43.0564C38.9305 47.1822 33.3348 49.5 27.5 49.5C21.6652 49.5 16.0695 47.1822 11.9437 43.0564C7.81785 38.9305 5.5 33.3348 5.5 27.5C5.5 21.6652 7.81785 16.0695 11.9437 11.9437C16.0695 7.81785 21.6652 5.5 27.5 5.5C29.15 5.5 30.8 5.6925 32.4225 6.0775L36.85 1.65C33.8525 0.5775 30.69 0 27.5 0ZM46.75 0L35.75 11V15.125L28.7375 22.1375C28.325 22 27.9125 22 27.5 22C26.0413 22 24.6424 22.5795 23.6109 23.6109C22.5795 24.6424 22 26.0413 22 27.5C22 28.9587 22.5795 30.3576 23.6109 31.3891C24.6424 32.4205 26.0413 33 27.5 33C28.9587 33 30.3576 32.4205 31.3891 31.3891C32.4205 30.3576 33 28.9587 33 27.5C33 27.0875 33 26.675 32.8625 26.2625L39.875 19.25H44L55 8.25H46.75V0ZM27.5 11C23.1239 11 18.9271 12.7384 15.8327 15.8327C12.7384 18.9271 11 23.1239 11 27.5C11 31.8761 12.7384 36.0729 15.8327 39.1673C18.9271 42.2616 23.1239 44 27.5 44C31.8761 44 36.0729 42.2616 39.1673 39.1673C42.2616 36.0729 44 31.8761 44 27.5H38.5C38.5 30.4174 37.3411 33.2153 35.2782 35.2782C33.2153 37.3411 30.4174 38.5 27.5 38.5C24.5826 38.5 21.7847 37.3411 19.7218 35.2782C17.6589 33.2153 16.5 30.4174 16.5 27.5C16.5 24.5826 17.6589 21.7847 19.7218 19.7218C21.7847 17.6589 24.5826 16.5 27.5 16.5V11Z" fill="#E02E2E"/>
</svg>
