<svg width="48" height="35" viewBox="0 0 48 35" fill="none" xmlns="http://www.w3.org/2000/svg">
<path d="M4.5 0C3.30653 0 2.16193 0.460936 1.31802 1.28141C0.474106 2.10188 0 3.21468 0 4.375V24.7917C0 25.952 0.474106 27.0648 1.31802 27.8853C2.16193 28.7057 3.30653 29.1667 4.5 29.1667H37.5C38.6935 29.1667 39.8381 28.7057 40.682 27.8853C41.5259 27.0648 42 25.952 42 24.7917V4.375C42 3.21468 41.5259 2.10188 40.682 1.28141C39.8381 0.460936 38.6935 0 37.5 0H4.5ZM12 2.91667V5.83333C12 7.38043 11.3679 8.86416 10.2426 9.95812C9.11742 11.0521 7.5913 11.6667 6 11.6667H3V8.75H6C6.79565 8.75 7.55871 8.44271 8.12132 7.89573C8.68393 7.34875 9 6.60688 9 5.83333V2.91667H12ZM21 19.6875C19.6076 19.6875 18.2723 19.1497 17.2877 18.1925C16.3031 17.2353 15.75 15.937 15.75 14.5833C15.75 13.2296 16.3031 11.9314 17.2877 10.9741C18.2723 10.0169 19.6076 9.47917 21 9.47917C22.3924 9.47917 23.7277 10.0169 24.7123 10.9741C25.6969 11.9314 26.25 13.2296 26.25 14.5833C26.25 15.937 25.6969 17.2353 24.7123 18.1925C23.7277 19.1497 22.3924 19.6875 21 19.6875ZM3 20.4167V17.5H6C7.5913 17.5 9.11742 18.1146 10.2426 19.2085C11.3679 20.3025 12 21.7862 12 23.3333V26.25H9V23.3333C9 22.5598 8.68393 21.8179 8.12132 21.2709C7.55871 20.724 6.79565 20.4167 6 20.4167H3ZM36 20.4167C35.2043 20.4167 34.4413 20.724 33.8787 21.2709C33.3161 21.8179 33 22.5598 33 23.3333V26.25H30V23.3333C30 21.7862 30.6321 20.3025 31.7574 19.2085C32.8826 18.1146 34.4087 17.5 36 17.5H39V20.4167H36ZM36 8.75H39V11.6667H36C34.4087 11.6667 32.8826 11.0521 31.7574 9.95812C30.6321 8.86416 30 7.38043 30 5.83333V2.91667H33V5.83333C33 6.60688 33.3161 7.34875 33.8787 7.89573C34.4413 8.44271 35.2043 8.75 36 8.75ZM45 24.7917C45 26.7255 44.2098 28.5802 42.8033 29.9477C41.3968 31.3151 39.4891 32.0833 37.5 32.0833H6.255C6.56533 32.9367 7.14025 33.6755 7.90053 34.1978C8.66081 34.7202 9.56902 35.0005 10.5 35H37.5C40.2848 35 42.9555 33.9245 44.9246 32.01C46.8938 30.0956 48 27.4991 48 24.7917V10.2083C48.0005 9.30322 47.7122 8.42023 47.1749 7.68107C46.6376 6.94191 45.8777 6.38296 45 6.08125V24.7917Z" fill="#E02E2E"/>
</svg>
