<svg width="52" height="38" viewBox="0 0 52 38" fill="none" xmlns="http://www.w3.org/2000/svg">
<path d="M12.5745 21.3988C14.8436 21.4463 16.9473 22.5863 18.3655 24.5813C19.2355 25.7982 20.3822 26.7886 21.7101 27.4703C23.0381 28.1519 24.5088 28.5049 26 28.5C29.0491 28.5 31.9091 27.0275 33.6345 24.5575C35.0527 22.5625 37.1564 21.4225 39.4255 21.375C37.7236 18.4775 30.9164 16.625 26 16.625C21.1073 16.625 14.2764 18.4775 12.5745 21.3988ZM7.09091 21.375C11.0145 21.375 14.1818 18.1925 14.1818 14.25C14.1818 10.3075 11.0145 7.125 7.09091 7.125C3.16727 7.125 0 10.3075 0 14.25C0 18.1925 3.16727 21.375 7.09091 21.375ZM44.9091 21.375C48.8327 21.375 52 18.1925 52 14.25C52 10.3075 48.8327 7.125 44.9091 7.125C40.9855 7.125 37.8182 10.3075 37.8182 14.25C37.8182 18.1925 40.9855 21.375 44.9091 21.375ZM26 14.25C29.9236 14.25 33.0909 11.0675 33.0909 7.125C33.0909 3.1825 29.9236 0 26 0C22.0764 0 18.9091 3.1825 18.9091 7.125C18.9091 11.0675 22.0764 14.25 26 14.25Z" fill="white"/>
<path d="M47.2727 23.75H39.5436C37.7236 23.75 36.3527 24.8188 35.5727 25.935C35.4782 26.0775 32.3582 30.875 26 30.875C22.62 30.875 18.8382 29.355 16.4273 25.935C15.5055 24.6287 14.0636 23.75 12.4564 23.75H4.72727C2.12727 23.75 0 25.8875 0 28.5V38H16.5455V32.6325C19.2636 34.5325 22.5491 35.625 26 35.625C29.4509 35.625 32.7364 34.5325 35.4545 32.6325V38H52V28.5C52 25.8875 49.8727 23.75 47.2727 23.75Z" fill="white"/>
</svg>
