<svg width="24" height="24" viewBox="0 0 24 24" fill="none" xmlns="http://www.w3.org/2000/svg">
<g clip-path="url(#clip0_413_15920)">
<path d="M7.55016 21.7501C16.6045 21.7501 21.5583 14.2468 21.5583 7.74195C21.5583 7.53101 21.5536 7.31539 21.5442 7.10445C22.5079 6.40755 23.3395 5.54434 24 4.55539C23.1025 4.95469 22.1496 5.21547 21.1739 5.32882C22.2013 4.713 22.9705 3.74556 23.3391 2.60585C22.3726 3.17865 21.3156 3.5827 20.2134 3.8007C19.4708 3.01165 18.489 2.4892 17.4197 2.31414C16.3504 2.13907 15.2532 2.32114 14.2977 2.83218C13.3423 3.34323 12.5818 4.15479 12.1338 5.1414C11.6859 6.12801 11.5754 7.2347 11.8195 8.29039C9.86249 8.19218 7.94794 7.68379 6.19998 6.79819C4.45203 5.91258 2.90969 4.66952 1.67297 3.1496C1.0444 4.23333 0.852057 5.51573 1.13503 6.73618C1.418 7.95662 2.15506 9.02354 3.19641 9.72007C2.41463 9.69525 1.64998 9.48477 0.965625 9.10601V9.16695C0.964925 10.3042 1.3581 11.4067 2.07831 12.2869C2.79852 13.167 3.80132 13.7706 4.91625 13.9951C4.19206 14.1932 3.43198 14.2221 2.69484 14.0794C3.00945 15.0575 3.62157 15.913 4.44577 16.5264C5.26997 17.1399 6.26512 17.4807 7.29234 17.5013C5.54842 18.8712 3.39417 19.6142 1.17656 19.6107C0.783287 19.6101 0.390399 19.586 0 19.5385C2.25286 20.9838 4.87353 21.7515 7.55016 21.7501Z" fill="#313131" fill-opacity="0.8"/>
</g>
<defs>
<clipPath id="clip0_413_15920">
<rect width="24" height="24" fill="white"/>
</clipPath>
</defs>
</svg>
